<svg height="504pt" viewBox="0 -75 504 503" width="504pt" xmlns="http://www.w3.org/2000/svg"><path d="m480 198.25h-456c-11.046875 0-20-8.953125-20-20v-153.75c0-11.046875 8.953125-20 20-20h456c11.046875 0 20 8.953125 20 20v153.75c0 11.046875-8.953125 20-20 20zm0 0" fill="#7bac51"/><path d="m23.375 4.5h19.378906c-10.703125 0-19.378906 8.675781-19.378906 19.375v155c0 10.699219 8.675781 19.378906 19.378906 19.378906h-19.378906c-10.699219 0-19.375-8.675781-19.375-19.378906v-155c0-10.699219 8.675781-19.375 19.375-19.375zm0 0" fill="#99ca6f"/><path d="m346.9375 268h42.625v81.375h-42.625zm0 0" fill="#ff4397"/><path d="m389.5625 149.8125h-275.125c-26.75 0-48.4375 21.6875-48.4375 48.4375h372c0-26.75-21.6875-48.4375-48.4375-48.4375zm0 0" fill="#fcc24c"/><path d="m480.625 4.5h-19.375c10.699219 0 19.375 8.675781 19.375 19.375v155c0 10.699219-8.671875 19.378906-19.375 19.378906h19.375c10.699219 0 19.378906-8.675781 19.378906-19.378906v-155c-.003906-10.699219-8.679687-19.375-19.378906-19.375zm0 0" fill="#5d8e33"/><path d="m480 202.25h-456c-13.234375 0-24-10.765625-24-24v-153.75c0-13.234375 10.765625-24 24-24h456c13.234375 0 24 10.765625 24 24v153.75c0 13.234375-10.765625 24-24 24zm-456-193.75c-8.820312 0-16 7.179688-16 16v153.75c0 8.820312 7.179688 16 16 16h456c8.820312 0 16-7.179688 16-16v-153.75c0-8.820312-7.179688-16-16-16zm0 0" fill="#690589"/><path d="m19.5 72.4375c-2.207031 0-4-1.792969-4-4v-30.03125c0-2.207031 1.792969-4 4-4s4 1.792969 4 4v30.03125c0 2.207031-1.792969 4-4 4zm0 0" fill="#690589"/><path d="m389.5625 149.8125h-38.75c26.75 0 48.4375 21.6875 48.4375 48.441406h38.75c0-26.753906-21.6875-48.441406-48.4375-48.441406zm0 0" fill="#dea42e"/><path d="m114.4375 149.8125h38.75c-26.75 0-48.4375 21.6875-48.4375 48.441406h-38.75c0-26.753906 21.6875-48.441406 48.4375-48.441406zm0 0" fill="#fce06a"/><path d="m38.875 29.6875h426.25v96.875h-426.25zm0 0" fill="#e12579"/><g fill="#690589"><path d="m438 202.25h-372c-2.207031 0-4-1.792969-4-4 0-28.914062 23.523438-52.4375 52.4375-52.4375h275.125c28.914062 0 52.441406 23.523438 52.441406 52.4375-.003906 2.210938-1.792968 4-4.003906 4zm-367.820312-8h363.640624c-2.027343-22.636719-21.101562-40.4375-44.257812-40.4375h-275.125c-23.15625 0-42.230469 17.800781-44.257812 40.4375zm0 0"/><path d="m465.125 130.5625h-426.25c-2.207031 0-4-1.789062-4-4v-96.875c0-2.207031 1.792969-4 4-4h426.25c2.210938 0 4 1.792969 4 4v96.875c0 2.210938-1.789062 4-4 4zm-422.25-8h418.25v-88.875h-418.25zm0 0"/><path d="m465.125 82.125h-426.25c-2.207031 0-4-1.789062-4-4 0-2.207031 1.792969-4 4-4h426.25c2.210938 0 4 1.792969 4 4 0 2.210938-1.789062 4-4 4zm0 0"/><path d="m252 130.5625c-2.207031 0-4-1.789062-4-4v-96.875c0-2.207031 1.792969-4 4-4 2.210938 0 4 1.792969 4 4v96.875c0 2.210938-1.789062 4-4 4zm0 0"/></g><path d="m377.9375 268h11.625v81.375h-11.625zm0 0" fill="#e12579"/><path d="m346.9375 268h11.625v81.375h-11.625zm0 0" fill="#ff61b5"/><path d="m356.625 225.375-38.75-147.25h100.75l-38.75 147.25zm0 0" fill="#f4efed"/><path d="m389.5625 268h-42.625l9.6875-42.625h23.25zm0 0" fill="#ff4397"/><path d="m407 78.125-38.75 147.25h11.625l38.75-147.25zm0 0" fill="#d6d1cf"/><path d="m329.5 78.125 38.75 147.25h-11.625l-38.75-147.25zm0 0" fill="#fff"/><path d="m389.5625 353.375h-42.625c-2.210938 0-4-1.789062-4-4v-81.375c0-2.207031 1.789062-4 4-4h42.625c2.207031 0 4 1.792969 4 4v81.375c0 2.210938-1.789062 4-4 4zm-38.625-8h34.625v-73.375h-34.625zm0 0" fill="#690589"/><path d="m389.5625 272h-42.625c-1.21875 0-2.371094-.554688-3.128906-1.507812-.757813-.949219-1.039063-2.195313-.773438-3.378907l9.6875-42.628906c.414063-1.820313 2.035156-3.113281 3.902344-3.113281h23.25c1.867188 0 3.484375 1.292968 3.898438 3.113281l9.6875 42.628906c.269531 1.183594-.015626 2.429688-.773438 3.378907-.757812.953124-1.90625 1.507812-3.125 1.507812zm-37.613281-8h32.601562l-7.867187-34.625h-16.867188zm0 0" fill="#690589"/><path d="m379.875 229.375h-23.25c-1.816406 0-3.40625-1.222656-3.867188-2.980469l-38.75-147.25c-.316406-1.199219-.058593-2.480469.699219-3.460937.757813-.980469 1.929688-1.558594 3.167969-1.558594h100.75c1.242188 0 2.410156.574219 3.167969 1.558594.757812.980468 1.015625 2.261718.703125 3.460937l-38.75 147.25c-.464844 1.753907-2.054688 2.980469-3.871094 2.980469zm-20.164062-8h17.082031l36.644531-139.25h-90.375zm0 0" fill="#690589"/></svg>