<svg style="width: 30px; height: 30px; font-size: 18px; float: left; margin: 0 15px 0 0; " id="Capa_1" enable-background="new 0 0 512 512" height="512" viewBox="0 0 512 512" width="512" xmlns="http://www.w3.org/2000/svg"><g><path d="m286 95.012c-8.284 0-15-6.716-15-15v-35.012c0-8.271-6.729-15-15-15s-15 6.729-15 15v35.012c0 8.284-6.716 15-15 15s-15-6.716-15-15v-35.012c0-24.813 20.187-45 45-45s45 20.187 45 45v35.012c0 8.284-6.716 15-15 15z" fill="#ffb454"></path><path d="m271 45v35.012c0 8.284 6.716 15 15 15s15-6.716 15-15v-35.012c0-24.813-20.187-45-45-45v30c8.271 0 15 6.729 15 15z" fill="#ff7038"></path><path d="m256 512c-52.383 0-95-42.617-95-95 0-8.284 6.716-15 15-15h160c8.284 0 15 6.716 15 15 0 52.383-42.617 95-95 95z" fill="#ffb454"></path><path d="m336 402h-80v110c52.383 0 95-42.617 95-95 0-8.284-6.716-15-15-15z" fill="#ff7038"></path><path d="m428.918 432h-345.836c-28.718 0-52.082-23.364-52.082-52.082 0-19.854 11.032-37.704 28.791-46.584 19.25-9.625 31.209-28.975 31.209-50.498v-55.836c0-90.981 74.019-165 165-165s165 74.019 165 165v55.836c0 21.523 11.959 40.873 31.21 50.498 17.759 8.88 28.79 26.729 28.79 46.584 0 28.718-23.364 52.082-52.082 52.082z" fill="#ffe278"></path><path d="m428.918 432c28.718 0 52.082-23.364 52.082-52.082 0-19.854-11.031-37.704-28.79-46.584-19.251-9.625-31.21-28.975-31.21-50.498v-55.836c0-90.981-74.019-165-165-165v370z" fill="#ffb454"></path><g fill="#6b61b1"><circle cx="256" cy="317" r="15"></circle><path d="m202.967 263.967c-5.858 5.857-5.858 15.355 0 21.213 5.859 5.858 15.355 5.858 21.213 0 17.546-17.545 46.095-17.545 63.64 0 2.929 2.93 6.768 4.394 10.606 4.394s7.678-1.465 10.606-4.394c5.858-5.858 5.857-15.355 0-21.213-29.241-29.242-76.823-29.242-106.065 0z"></path><path d="m351.459 221.541c-25.498-25.498-59.399-39.541-95.459-39.541s-69.961 14.043-95.459 39.541c-5.858 5.857-5.858 15.355 0 21.213 5.857 5.857 15.355 5.857 21.213 0 19.831-19.832 46.2-30.754 74.246-30.754 28.047 0 54.414 10.922 74.246 30.754 2.929 2.93 6.768 4.394 10.606 4.394s7.678-1.465 10.606-4.394c5.859-5.858 5.859-15.356.001-21.213z"></path></g><path d="m330.246 242.754c2.929 2.93 6.768 4.394 10.606 4.394s7.678-1.465 10.606-4.394c5.858-5.857 5.858-15.355 0-21.213-25.497-25.498-59.398-39.541-95.458-39.541v30c28.047 0 54.414 10.922 74.246 30.754z" fill="#38336b"></path><path d="m256 242.035v29.986c11.524 0 23.048 4.386 31.82 13.159 2.929 2.93 6.768 4.394 10.606 4.394s7.678-1.465 10.606-4.394c5.858-5.858 5.857-15.355 0-21.213-14.62-14.621-33.826-21.932-53.032-21.932z" fill="#38336b"></path><path d="m271 317c0-8.284-6.716-15-15-15v30c8.284 0 15-6.716 15-15z" fill="#38336b"></path></g></svg>