<svg height="512" viewBox="0 0 64 64" width="512" xmlns="http://www.w3.org/2000/svg"><g id="lamp-cabinets-mop-pail-clean"><path d="m59 58 2 3h-16l-2-3v-1a2.006 2.006 0 0 1 2-2h12a2.006 2.006 0 0 1 2 2z" fill="#fee9ab"/><path d="m55 51v4h-8v-4h2 4z" fill="#ff7956"/><path d="m53 27v24h-4v-24a2.006 2.006 0 0 1 2-2 2.015 2.015 0 0 1 2 2z" fill="#c0ab91"/><path d="m49 45v6h-2v4h-2a2.006 2.006 0 0 0 -2 2v1l2 3h-9l-1-16c0 2.76 3.13 5 7 5s7-2.24 7-5z" fill="#57a4ff"/><path d="m35 45h14c0 2.76-3.13 5-7 5s-7-2.24-7-5z" fill="#57a4ff"/><path d="m33 27a2.015 2.015 0 0 1 -2 2h-26a2.006 2.006 0 0 1 -2-2 2.015 2.015 0 0 1 2-2h26a2.006 2.006 0 0 1 2 2z" fill="#806749"/><path d="m31 29v26a2.006 2.006 0 0 1 -2 2h-22a2.006 2.006 0 0 1 -2-2v-26z" fill="#a78966"/><path d="m33 27a2.015 2.015 0 0 1 -2 2h-4a2.015 2.015 0 0 0 2-2 2.006 2.006 0 0 0 -2-2h4a2.006 2.006 0 0 1 2 2z" fill="#6a563d"/><path d="m31 29v26a2.006 2.006 0 0 1 -2 2h-4a2.006 2.006 0 0 0 2-2v-26z" fill="#957856"/><path d="m23 57h6v4h-6z" fill="#806749"/><path d="m28 15h-20l4-12h12z" fill="#ffcd00"/><path d="m28 15h-4l-4-12h4z" fill="#ebbf00"/><path d="m9 45h18v8h-18z" fill="#fee9ab"/><path d="m9 33h18v8h-18z" fill="#fee9ab"/><path d="m14 21h8v4h-8z" fill="#898890"/><path d="m16 15h4v6h-4z" fill="#c6c5ca"/><path d="m7 57h6v4h-6z" fill="#806749"/><path d="m53 27v24h-2v-24a1.955 1.955 0 0 0 -.59-1.41 1.813 1.813 0 0 0 -.41-.32 2 2 0 0 1 1-.27 2.015 2.015 0 0 1 2 2z" fill="#a78966"/><path d="m61 61h-4l-2-3v-1a2.006 2.006 0 0 0 -2-2h4a2.006 2.006 0 0 1 2 2v1z" fill="#ffde55"/><path d="m51 51h4v4h-4z" fill="#ff5023"/><path d="m9 54h18a1 1 0 0 0 1-1v-8a1 1 0 0 0 -1-1h-18a1 1 0 0 0 -1 1v8a1 1 0 0 0 1 1zm1-8h16v6h-16z"/><path d="m9 42h18a1 1 0 0 0 1-1v-8a1 1 0 0 0 -1-1h-18a1 1 0 0 0 -1 1v8a1 1 0 0 0 1 1zm1-8h16v6h-16z"/><path d="m31 24h-8v-3a1 1 0 0 0 -1-1h-1v-4h7a.983.983 0 0 0 .81-.42 1 1 0 0 0 .14-.9l-4-12a1.014 1.014 0 0 0 -.95-.68h-12a1.014 1.014 0 0 0 -.95.68l-4 12a1 1 0 0 0 .14.9.983.983 0 0 0 .81.42h7v4h-1a1 1 0 0 0 -1 1v3h-8a3 3 0 0 0 -1 5.82v25.18a3.01 3.01 0 0 0 2 2.82v3.18a1 1 0 0 0 1 1h6a1 1 0 0 0 1-1v-3h8v3a1 1 0 0 0 1 1h6a1 1 0 0 0 1-1v-3.18a3.01 3.01 0 0 0 2-2.82v-25.18a3 3 0 0 0 -1-5.82zm-21.61-10 3.33-10h10.56l3.33 10zm9.61 2v4h-2v-4zm-4 6h6v2h-6zm-3 38h-4v-2h4zm16 0h-4v-2h4zm2-5a1 1 0 0 1 -1 1h-22a1 1 0 0 1 -1-1v-25h24zm1-27h-26a1 1 0 0 1 0-2h26a1 1 0 0 1 0 2z"/><path d="m16 36h5v2h-5z"/><path d="m16 48h5v2h-5z"/><path d="m58 2h2v2h-2z"/><path d="m56 4h2v2h-2z"/><path d="m58 6h2v2h-2z"/><path d="m60 4h2v2h-2z"/><path d="m44 2h2v2h-2z"/><path d="m42 4h2v2h-2z"/><path d="m44 6h2v2h-2z"/><path d="m46 4h2v2h-2z"/><path d="m51 12h2v2h-2z"/><path d="m49 14h2v2h-2z"/><path d="m51 16h2v2h-2z"/><path d="m53 14h2v2h-2z"/><path d="m37 12h2v2h-2z"/><path d="m35 14h2v2h-2z"/><path d="m37 16h2v2h-2z"/><path d="m39 14h2v2h-2z"/><path d="m61.83 60.45-1.83-2.75v-.7a3.009 3.009 0 0 0 -3-3h-1v-3a1 1 0 0 0 -1-1h-1v-23a3 3 0 0 0 -6 0v17h-13a.97.97 0 0 0 -.73.32 1 1 0 0 0 -.26.68h-.01v.06l1 16a1 1 0 0 0 1 .94h25a.984.984 0 0 0 .88-.53.963.963 0 0 0 -.05-1.02zm-11.83-33.45a1 1 0 0 1 2 0v23h-2zm4 25v2h-6v-2zm-6.21-6c-.68 1.7-3.05 3-5.79 3s-5.11-1.3-5.79-3zm-10.85 14-.68-10.83a9.414 9.414 0 0 0 5.74 1.83 9.3 9.3 0 0 0 6-2.04v1.04h-1a1 1 0 0 0 -1 1v3h-1a3.009 3.009 0 0 0 -3 3v1a.967.967 0 0 0 .17.55l.96 1.45zm8.6 0-1.54-2.3v-.7a1 1 0 0 1 1-1h12a1 1 0 0 1 1 1v1a.967.967 0 0 0 .17.55l.96 1.45z"/></g></svg>