<svg id="Layer_1" enable-background="new 0 0 128 128" height="512" viewBox="0 0 128 128" width="512" xmlns="http://www.w3.org/2000/svg"><g><g><g><path d="m83.709 61.167c-5.052 0-9.831 1.181-14.084 3.275v-24.942c0-3.86-3.141-7-7-7h-.5v-8c0-2.757-2.243-5-5-5h-1.5v-8.667c0-2.757-2.243-5-5-5h-7.333c-2.206 0-4 1.794-4 4v9.667h-1.5c-2.757 0-5 2.243-5 5v8h-.5c-3.86 0-7 3.14-7 7v78.667c0 3.86 3.14 7 7 7h30.333c2.667 0 4.989-1.5 6.17-3.7 4.457 2.358 9.53 3.7 14.914 3.7 17.644 0 32-14.355 32-32s-14.356-32-32-32z" fill="#e6e7e8"/></g><g><path d="m28.041 15.198h2c.552 0 1-.448 1-1s-.448-1-1-1h-2c-.552 0-1 .448-1 1s.448 1 1 1z" fill="#e6e7e8"/></g><g><path d="m34.041 15.198h2c.552 0 1-.448 1-1s-.448-1-1-1h-2c-.552 0-1 .448-1 1s.448 1 1 1z" fill="#e6e7e8"/></g><g><path d="m16.291 15.198h1.75c.552 0 1-.448 1-1s-.448-1-1-1h-1.75c-.552 0-1 .448-1 1s.448 1 1 1z" fill="#e6e7e8"/></g><g><path d="m22.041 15.198h2c.552 0 1-.448 1-1s-.448-1-1-1h-2c-.552 0-1 .448-1 1s.448 1 1 1z" fill="#e6e7e8"/></g><g><path d="m29.972 16.807-1.99.202c-.55.056-.95.546-.895 1.096.052.516.487.899.994.899.034 0 .067-.002.102-.005l1.99-.202c.55-.056.95-.546.895-1.096-.056-.549-.543-.946-1.096-.894z" fill="#e6e7e8"/></g><g><path d="m24.001 17.412-1.989.202c-.55.056-.95.546-.895 1.096.052.515.487.899.994.899.034 0 .067-.002.102-.005l1.99-.202c.549-.056.95-.546.894-1.096-.055-.549-.539-.947-1.096-.894z" fill="#e6e7e8"/></g><g><path d="m18.033 18.016-1.842.187c-.55.056-.95.546-.894 1.096.052.516.487.899.994.899.034 0 .067-.001.102-.005l1.842-.187c.55-.056.95-.546.894-1.096-.056-.549-.546-.948-1.096-.894z" fill="#e6e7e8"/></g><g><path d="m35.941 16.203-1.99.202c-.549.056-.95.546-.894 1.096.052.516.487.899.994.899.034 0 .067-.001.102-.005l1.989-.202c.55-.056.95-.546.895-1.096-.056-.549-.545-.946-1.096-.894z" fill="#e6e7e8"/></g><g><path d="m33.951 11.991 1.99.202c.034.003.068.005.102.005.507 0 .942-.384.994-.899.056-.549-.345-1.04-.895-1.096l-1.989-.202c-.56-.059-1.041.344-1.096.895-.056.549.344 1.04.894 1.095z" fill="#e6e7e8"/></g><g><path d="m24.204 8.994-1.99-.202c-.563-.057-1.041.345-1.096.894-.056.55.345 1.041.895 1.096l1.989.202c.035.003.068.005.102.005.507 0 .942-.384.994-.899.055-.55-.345-1.04-.894-1.096z" fill="#e6e7e8"/></g><g><path d="m27.981 11.387 1.99.202c.034.003.068.005.102.005.507 0 .942-.384.994-.899.056-.549-.345-1.04-.895-1.096l-1.99-.202c-.549-.058-1.04.345-1.096.894-.055.549.346 1.04.895 1.096z" fill="#e6e7e8"/></g><g><path d="m18.234 8.389-1.842-.187c-.551-.056-1.04.345-1.096.895-.056.549.345 1.04.894 1.096l1.842.186c.034.003.068.005.102.005.507 0 .942-.384.994-.899.056-.549-.344-1.04-.894-1.096z" fill="#e6e7e8"/></g></g><g><g><g><path d="m58.625 120.167h-30.334c-3.314 0-6-2.686-6-6v-78.667c0-3.314 2.686-6 6-6h30.333c3.314 0 6 2.686 6 6v78.667c.001 3.313-2.686 6-5.999 6z" fill="#6dc9f7"/></g><path d="m22.291 98.083h13.25c2.209 0 4-1.791 4-4v-38.5c0-2.209-1.791-4-4-4h-13.25z" fill="#0089ef"/></g><g><path d="m53.125 16.5h-19.334c-2.209 0-4 1.791-4 4v9h27.333v-9c.001-2.209-1.79-4-3.999-4z" fill="#6dc9f7"/></g><g><path d="m53.125 16.5h-19.334c-2.209 0-4 1.791-4 4v3c0-2.209 1.791-4 4-4h19.333c2.209 0 4 1.791 4 4v-3c.001-2.209-1.79-4-3.999-4z" fill="#fff"/></g><path d="m50.625 16.5h-14.334v-10.667c0-1.657 1.343-3 3-3h7.333c2.209 0 4 1.791 4 4v9.667z" fill="#d4fbff"/><path d="m50.625 16.5h-14.334v-10.667c0-1.657 1.343-3 3-3h7.333c2.209 0 4 1.791 4 4v9.667z" fill="#d4fbff"/><g><g><circle cx="79.708" cy="89.167" fill="#ffd7e5" r="25"/></g><g><path d="m69.54 102.445c5.914 6.65 17.876-.702 20.677-12.053 2.642-10.704-2.452-20.625-9.723-18.211-3.738 1.242-2.695 6.591-3.734 12.087-.542 2.864-4.268 4.42-6.36 6.91-2.615 3.113-4.367 7.324-.86 11.267z" fill="#6dc9f7"/><g><path d="m71.658 100.553c4.385 4.931 13.727-1.413 15.805-9.83 1.959-7.937-.019-17.811-5.41-16.02-2.772.921-1.603 6.895-3.904 11.812-.916 1.958-3.407 3.474-5.13 5.161-2.319 2.271-3.961 5.953-1.361 8.877z" fill="#0089ef"/></g><g><path d="m79.068 96.083c-.232-1.5-1.636-2.527-3.136-2.295s-2.527 1.636-2.295 3.136 1.637 2.527 3.136 2.295c1.5-.233 2.527-1.637 2.295-3.136z" fill="#d4fbff"/></g><g><path d="m84.079 88.952c-.193-1.247-1.361-2.102-2.609-1.909-1.247.193-2.102 1.361-1.909 2.609.193 1.247 1.361 2.102 2.609 1.909 1.247-.193 2.102-1.361 1.909-2.609z" fill="#d4fbff"/></g><g><path d="m85.646 81.281c-.139-.896-.978-1.51-1.874-1.371s-1.51.978-1.371 1.874.978 1.51 1.874 1.371 1.51-.978 1.371-1.874z" fill="#d4fbff"/></g></g><path d="m79.708 58.167c-17.121 0-31 13.879-31 31s13.879 31 31 31 31-13.879 31-31-13.879-31-31-31zm25 31c0 5.848-2.013 11.222-5.377 15.481l-35.103-35.104c4.258-3.364 9.633-5.377 15.481-5.377 13.807 0 24.999 11.193 24.999 25zm-50 0c0-5.824 1.997-11.178 5.336-15.427l35.092 35.092c-4.25 3.339-9.604 5.336-15.427 5.336-13.808-.001-25.001-11.194-25.001-25.001z" fill="#fa759e"/></g><g fill="#3a2c60"><path d="m64.625 44.042c-.552 0-1 .448-1 1v7.125c0 .552.448 1 1 1s1-.448 1-1v-7.125c0-.553-.448-1-1-1z"/><path d="m60.751 73.032c-.202-.202-.478-.312-.767-.291-.286.017-.55.155-.727.38-3.63 4.621-5.549 10.169-5.549 16.045 0 14.336 11.664 26 26 26 5.876 0 11.425-1.919 16.046-5.549.225-.176.363-.441.38-.727.018-.285-.089-.564-.291-.767zm16.478 30.673c-1.954.484-4.747.543-6.942-1.924-2.556-2.874-2.26-6.224.88-9.958.705-.839 1.662-1.602 2.588-2.34.114-.091.226-.186.34-.278l10.117 10.117c-2.189 2.289-4.707 3.82-6.983 4.383zm2.479 9.462c-13.233 0-24-10.767-24-24 0-5.045 1.533-9.829 4.444-13.905l12.522 12.522c-.056.045-.109.09-.166.135-1.002.799-2.039 1.625-2.872 2.617-.405.482-.762.963-1.087 1.444l-1.135-.641c-.479-.271-1.091-.103-1.362.378-.272.481-.103 1.091.378 1.363l1.118.632c-.471.985-.768 1.958-.894 2.913l-1.53.086c-.551.031-.973.503-.942 1.055.03.532.471.944.998.944.019 0 .038 0 .058-.001l1.404-.079c.165 1.269.66 2.488 1.482 3.636l-1.031 1.06c-.385.396-.376 1.029.02 1.414.194.189.446.283.697.283.261 0 .521-.101.717-.303l.919-.945c.891.818 1.904 1.411 3.008 1.773l-.18 1.348c-.073.547.312 1.05.858 1.124.045.006.09.009.134.009.493 0 .923-.365.99-.868l.164-1.225c.244.02.489.037.739.037.823 0 1.677-.107 2.552-.324.124-.031.246-.076.37-.111l.366 1.245c.128.436.526.719.959.719.093 0 .188-.013.282-.041.529-.156.833-.711.677-1.241l-.399-1.36c1.111-.501 2.192-1.159 3.222-1.943l.806 1.016c.197.249.489.378.784.378.218 0 .437-.071.621-.217.433-.343.505-.973.161-1.405l-.848-1.068c.308-.288.609-.585.904-.895l8 8c-4.079 2.908-8.863 4.441-13.908 4.441z"/><path d="m79.708 57.167c-5.052 0-9.831 1.181-14.084 3.275v-4.275c0-.552-.447-1-1-1s-1 .448-1 1v5.353c-9.509 5.553-15.916 15.863-15.916 27.647 0 11.537 6.138 21.665 15.319 27.296-.831 1.599-2.479 2.704-4.403 2.704h-30.332c-2.757 0-5-2.243-5-5v-15.084h12.25c2.757 0 5-2.243 5-5v-38.5c0-2.757-2.243-5-5-5h-12.25v-15.083c0-2.757 2.243-5 5-5h1.5 27.333 1.5c2.757 0 5 2.243 5 5v5.542c0 .552.448 1 1 1s1-.448 1-1v-5.542c0-3.86-3.14-7-7-7h-.5v-8c0-2.757-2.243-5-5-5h-1.5v-8.667c0-2.757-2.243-5-5-5h-7.333c-2.206 0-4 1.794-4 4v9.667h-1.5c-2.757 0-5 2.243-5 5v8h-.5c-3.86 0-7 3.14-7 7v78.667c0 3.86 3.14 7 7 7h30.333c2.667 0 4.98-1.505 6.16-3.706 4.459 2.362 9.536 3.706 14.924 3.706 17.645 0 32-14.355 32-32s-14.356-32-32.001-32zm-42.416-43.97c1.251-.43 2.156-1.602 2.156-2.999s-.905-2.569-2.156-2.999v-1.366c0-1.103.897-2 2-2h7.333c1.654 0 3 1.346 3 3v8.667h-12.333zm-6.5 7.303c0-1.654 1.346-3 3-3h2.5 14.333 2.5c1.654 0 3 1.346 3 3v8h-25.333zm4.75 32.083c1.654 0 3 1.346 3 3v38.5c0 1.654-1.346 3-3 3h-12.25v-44.5zm44.166 66.584c-16.542 0-30-13.458-30-30s13.458-30 30-30 30 13.458 30 30-13.458 30-30 30z"/><path d="m79.708 63.167c-5.9 0-11.468 1.934-16.1 5.593-.224.177-.362.441-.378.726-.017.285.089.564.291.766l35.103 35.104c.188.188.442.293.707.293.02 0 .039 0 .059-.001.285-.017.549-.155.726-.378 3.659-4.631 5.593-10.199 5.593-16.101-.001-14.339-11.664-26.002-26.001-26.002zm-1.406 16.559c.305-3.781.571-5.951 2.509-6.595 2.023-.672 3.936-.253 5.523 1.215 3.267 3.019 4.465 9.519 2.913 15.807-.195.789-.45 1.538-.728 2.269l-10.43-10.431c.085-.783.156-1.552.213-2.265zm20.923 23.401-9.165-9.165c.077-.178.146-.359.218-.539l1.291.349c.087.023.175.035.262.035.44 0 .844-.294.964-.739.145-.533-.171-1.083-.704-1.227l-1.151-.311c.088-.298.175-.597.249-.898.304-1.23.506-2.462.623-3.677l1.248.145c.039.004.077.006.115.006.501 0 .934-.375.992-.885.063-.549-.33-1.045-.879-1.108l-1.368-.158c.018-1.289-.069-2.543-.257-3.741l1.313-.287c.539-.118.881-.651.763-1.191-.117-.539-.646-.883-1.19-.763l-1.287.281c-.346-1.31-.831-2.516-1.434-3.596l1.103-.715c.464-.301.596-.92.295-1.383s-.92-.595-1.383-.295l-1.129.732c-.321-.4-.657-.78-1.023-1.118-.511-.472-1.055-.86-1.621-1.171l.451-1.353c.174-.524-.109-1.09-.633-1.265-.528-.176-1.092.108-1.266.633l-.422 1.27c-1.285-.289-2.646-.216-4.02.24-.036.012-.067.028-.102.041l-.835-1.203c-.314-.454-.938-.566-1.392-.251s-.566.938-.251 1.392l.777 1.119c-.731.73-1.179 1.694-1.468 2.802l-1.367-.239c-.555-.098-1.063.269-1.158.813s.269 1.062.813 1.157l1.35.237c-.101.795-.17 1.624-.237 2.466-.016.195-.036.396-.053.593l-10.509-10.51c4.088-2.937 8.891-4.483 13.96-4.483 13.233 0 24 10.767 24 24 0 5.07-1.546 9.873-4.483 13.96z"/><path d="m12.292 11.198h1.75c.552 0 1-.448 1-1s-.448-1-1-1h-1.75c-.552 0-1 .448-1 1s.447 1 1 1z"/><path d="m24.042 11.198h2c.552 0 1-.448 1-1s-.448-1-1-1h-2c-.552 0-1 .448-1 1s.447 1 1 1z"/><path d="m30.042 11.198h2c.552 0 1-.448 1-1s-.448-1-1-1h-2c-.552 0-1 .448-1 1s.447 1 1 1z"/><path d="m18.042 11.198h2c.552 0 1-.448 1-1s-.448-1-1-1h-2c-.552 0-1 .448-1 1s.447 1 1 1z"/><path d="m25.972 12.808-1.99.202c-.55.056-.95.546-.895 1.096.052.516.487.899.994.899.034 0 .067-.001.102-.005l1.99-.202c.55-.056.95-.546.895-1.096-.056-.55-.547-.945-1.096-.894z"/><path d="m31.941 12.203-1.99.202c-.549.056-.95.546-.894 1.096.052.516.487.899.994.899.034 0 .067-.001.102-.005l1.989-.202c.55-.056.95-.546.895-1.096s-.541-.943-1.096-.894z"/><path d="m20.001 13.412-1.989.202c-.55.056-.95.546-.895 1.096.052.515.487.899.994.899.034 0 .067-.001.102-.005l1.99-.202c.549-.056.95-.546.894-1.096-.055-.549-.535-.945-1.096-.894z"/><path d="m14.033 14.017-1.842.187c-.55.056-.95.546-.895 1.096.052.516.487.899.994.899.034 0 .067-.001.102-.005l1.842-.187c.55-.056.95-.546.895-1.096-.056-.55-.542-.946-1.096-.894z"/><path d="m29.951 7.991 1.99.202c.034.003.068.005.102.005.507 0 .942-.384.994-.899.056-.549-.345-1.04-.895-1.096l-1.989-.202c-.557-.055-1.041.345-1.096.895-.056.549.344 1.04.894 1.095z"/><path d="m20.204 4.994-1.99-.202c-.559-.054-1.041.345-1.096.894-.056.55.345 1.041.895 1.096l1.989.202c.035.003.068.005.102.005.507 0 .942-.384.994-.899.055-.55-.345-1.041-.894-1.096z"/><path d="m23.981 7.387 1.99.202c.034.003.068.005.102.005.507 0 .942-.384.994-.899.056-.549-.345-1.04-.895-1.096l-1.99-.202c-.553-.055-1.04.345-1.096.895-.055.548.346 1.039.895 1.095z"/><path d="m14.234 4.389-1.842-.187c-.547-.061-1.04.345-1.096.895-.056.549.345 1.04.895 1.096l1.842.187c.034.003.068.005.102.005.507 0 .942-.384.994-.899.055-.55-.345-1.041-.895-1.097z"/></g></g></g></svg>