<svg height="512" viewBox="0 0 512 512" width="512" xmlns="http://www.w3.org/2000/svg"><path d="m488 496v-118.37a48 48 0 0 0 -41.212-47.517l-70.788-10.113v-64h-80v64l-74.057 15.869a48 48 0 0 0 -37.943 46.931v113.2" fill="#fec9a3"/><path d="m376 307.856v-43.856h-80v43.856a71.963 71.963 0 0 0 80 0z" fill="#feb784"/><path d="m488 496v-118.37a48 48 0 0 0 -41.212-47.518l-70.788-10.112-17.143 48h-45.714l-17.143-48-74.058 15.869a48 48 0 0 0 -37.942 46.931v113.2" fill="#e0e0de"/><path d="m488 377.63v118.37h-304v-113.2a48 48 0 0 1 37.94-46.93l74.06-15.87 40 112 40-112 70.79 10.11a46.936 46.936 0 0 1 7.35 1.65 47.985 47.985 0 0 1 33.86 45.87z" fill="#49648e"/><path d="m488 377.63v118.37h-210.38c47.86-22.44 127.12-71.37 176.52-164.24a47.985 47.985 0 0 1 33.86 45.87z" fill="#425b82"/><path d="m328 432h16v64h-16z" fill="#334562"/><path d="m416 168h-8v48h8a24 24 0 0 0 0-48z" fill="#feb784"/><path d="m256.4 168h-.4a24 24 0 0 0 0 48h8v-48z" fill="#feb784"/><path d="m408 160v72a72 72 0 0 1 -70.97 71.99c-.34.01-.69.01-1.03.01a72.006 72.006 0 0 1 -72-72v-72a72.006 72.006 0 0 1 72-72c.34 0 .69 0 1.03.01a72 72 0 0 1 70.97 71.99z" fill="#fec9a3"/><path d="m408 160v72a72 72 0 0 1 -70.97 71.99 71.981 71.981 0 0 0 38.97-63.99v-88a72.086 72.086 0 0 0 -38.97-63.99 72 72 0 0 1 70.97 71.99z" fill="#fec093"/><path d="m301.8 140.613a174.36 174.36 0 0 0 68.4 0l5.8-1.159 32 36.546v-16a72 72 0 0 0 -144 0v16l32-36.546z" fill="#95573a"/><path d="m300 200a12 12 0 1 1 12-12 12.013 12.013 0 0 1 -12 12z" fill="#7a432a"/><path d="m372 200a12 12 0 1 1 12-12 12.013 12.013 0 0 1 -12 12z" fill="#7a432a"/><path d="m360 448h72v16h-72z" fill="#334562"/><path d="m296 408h16v16h-16z" fill="#334562"/><path d="m296 480h16v16h-16z" fill="#334562"/><path d="m328.934 248h-16.934v-16h16.934a98.9 98.9 0 0 0 28.742-4.219l4.648 15.313a114.782 114.782 0 0 1 -33.39 4.906z" fill="#f7a468"/><path d="m424 408h16v88h-16z" fill="#334562"/><path d="m232 408h16v88h-16z" fill="#334562"/><path d="m265.871 326.456 6.129 73.544 43.661-24.949-19.661-71.051z" fill="#6d7e9b"/><path d="m356.339 375.051 43.661 24.949 6.306-75.671-30.306-20.329z" fill="#6d7e9b"/><path d="m424 115.9v28.1h-176v-28.1a83.9 83.9 0 0 1 83.9-83.9h8.2a83.878 83.878 0 0 1 57 22.35c.99.92 1.96 1.86 2.9 2.82a83.568 83.568 0 0 1 24 58.73z" fill="#ffb531"/><path d="m424 115.9v28.1h-114.84c29.86-21.79 61.34-51.06 87.94-89.65a83.627 83.627 0 0 1 26.9 61.55z" fill="#ffa912"/><path d="m432.61 153.1-96.61 6.9-96.61-6.9a16.571 16.571 0 0 1 -15.39-16.529 16.571 16.571 0 0 1 16.571-16.571h190.858a16.571 16.571 0 0 1 16.571 16.571 16.571 16.571 0 0 1 -15.39 16.529z" fill="#ffb531"/><path d="m360 88h-48v-48a24 24 0 0 1 24-24 24 24 0 0 1 24 24z" fill="#ffcb73"/><path d="m288 44.4v51.6h-16v-38.83a83.676 83.676 0 0 1 16-12.77z" fill="#ffcb73"/><path d="m400 57.17v38.83h-16v-51.59a84.116 84.116 0 0 1 13.1 9.94c.99.92 1.96 1.86 2.9 2.82z" fill="#ffcb73"/><rect fill="#ffb531" height="312" rx="32" width="176" x="24" y="184"/><path d="m168 184h-2.933l-118.943 310.286a31.63 31.63 0 0 0 9.876 1.714h112a32 32 0 0 0 32-32v-248a32 32 0 0 0 -32-32z" fill="#ffa912"/><path d="m56 224h112v56h-112z" fill="#4db7e5"/><g fill="#e8770c"><path d="m56 304h16v16h-16z"/><path d="m88 304h16v16h-16z"/><path d="m120 304h16v16h-16z"/><path d="m152 304h16v16h-16z"/></g><circle cx="112" cy="400" fill="#f98500" r="56"/><path d="m96 344h32v112h-32z" fill="#ff9419" transform="matrix(.707 .707 -.707 .707 315.647 37.961)"/><path d="m48 456h16v16h-16z" fill="#e8770c"/><path d="m160 456h16v16h-16z" fill="#e8770c"/><path d="m56 224h112v16h-112z" fill="#45a7d1"/><path d="m56 224h16v56h-16z" fill="#45a7d1"/></svg>