<svg
  id="Layer_1"
  enable-backgound="new 0 0 464 464"
  height="512"
  viewBox="0 0 512 512"
  width="512"
  xmlns="http://www.w3.org/2000/svg"
  xmlns:xlink="http://www.w3.org/1999/xlink"
>
  <linearGradient
    id="New_Gradient_Swatch_1"
    gradientUnits="userSpaceOnUse"
    x1="128"
    x2="384"
    y1="560"
    y2="304"
  >
    <stop offset=".004" stop-color="#f1cccd" />
    <stop offset="1" stop-color="#faeeee" />
  </linearGradient>
  <linearGradient
    id="New_Gradient_Swatch_22"
    gradientUnits="userSpaceOnUse"
    x1="126.452"
    x2="385.548"
    y1="574.452"
    y2="315.356"
  >
    <stop offset=".011" stop-color="#dcdce3" />
    <stop offset="1" stop-color="#ededf1" />
  </linearGradient>
  <linearGradient
    id="New_Gradient_Swatch_13"
    gradientUnits="userSpaceOnUse"
    x1="159.269"
    x2="452.054"
    y1="674.648"
    y2="381.862"
  >
    <stop offset="0" stop-color="#d46669" />
    <stop offset="1" stop-color="#dd888a" />
  </linearGradient>
  <linearGradient
    id="New_Gradient_Swatch_13-2"
    gradientTransform="matrix(-1 0 0 1 512 0)"
    x1="605.055"
    x2="323.465"
    xlink:href="#New_Gradient_Swatch_13"
    y1="665.959"
    y2="384.369"
  />
  <linearGradient
    id="New_Gradient_Swatch_16"
    gradientUnits="userSpaceOnUse"
    x1="270.096"
    x2="323.369"
    y1="372.721"
    y2="319.448"
  >
    <stop offset=".004" stop-color="#dd888a" />
    <stop offset="1" stop-color="#ecbbbc" />
  </linearGradient>
  <linearGradient
    id="New_Gradient_Swatch_16-2"
    x1="188.048"
    x2="242.487"
    xlink:href="#New_Gradient_Swatch_16"
    y1="373.304"
    y2="318.865"
  />
  <linearGradient
    id="New_Gradient_Swatch_16-3"
    x1="240.451"
    x2="271.549"
    xlink:href="#New_Gradient_Swatch_16"
    y1="362.639"
    y2="331.541"
  />
  <linearGradient
    id="New_Gradient_Swatch_1-2"
    x1="323.79"
    x2="382.731"
    xlink:href="#New_Gradient_Swatch_1"
    y1="217.505"
    y2="158.565"
  />
  <linearGradient
    id="New_Gradient_Swatch_1-3"
    x1="133.234"
    x2="184.244"
    xlink:href="#New_Gradient_Swatch_1"
    y1="213.54"
    y2="162.53"
  />
  <linearGradient
    id="New_Gradient_Swatch_1-4"
    x1="124.292"
    x2="253.046"
    xlink:href="#New_Gradient_Swatch_1"
    y1="285.77"
    y2="157.016"
  />
  <linearGradient
    id="New_Gradient_Swatch_3"
    gradientUnits="userSpaceOnUse"
    x1="323.241"
    x2="383.459"
    y1="157.543"
    y2="97.325"
  >
    <stop offset=".011" stop-color="#606082" />
    <stop offset="1" stop-color="#83839e" />
  </linearGradient>
  <linearGradient
    id="New_Gradient_Swatch_3-2"
    gradientTransform="matrix(-1 0 0 1 512 0)"
    x1="387.785"
    x2="318.914"
    xlink:href="#New_Gradient_Swatch_3"
    y1="161.87"
    y2="92.999"
  />
  <linearGradient
    id="New_Gradient_Swatch_3-3"
    x1="178.829"
    x2="310.579"
    xlink:href="#New_Gradient_Swatch_3"
    y1="123.817"
    y2="-7.933"
  />
  <g id="_09-waiter" data-name="09-waiter">
    <g id="gradient">
      <path
        d="m304 320v-96h-96v96l-122.119 40.706a32 32 0 0 0 -21.881 30.358v104.936h384v-104.936a32 32 0 0 0 -21.881-30.358z"
        fill="url(#New_Gradient_Swatch_1)"
      />
      <path
        d="m426.119 360.706-90.119-30.039-80 21.333-80-21.333-90.119 30.039a32 32 0 0 0 -21.881 30.358v120.936h384v-120.936a32 32 0 0 0 -21.881-30.358z"
        fill="url(#New_Gradient_Swatch_22)"
      />
      <path
        d="m426.119 360.706-59.244-19.748-46.875 171.042h128v-120.936a32 32 0 0 0 -21.881-30.358z"
        fill="url(#New_Gradient_Swatch_13)"
      />
      <path
        d="m85.881 360.706 59.244-19.748 46.875 171.042h-128v-120.936a32 32 0 0 1 21.881-30.358z"
        fill="url(#New_Gradient_Swatch_13-2)"
      />
      <path
        d="m326.125 327.87a14 14 0 0 0 -20.022-12.5l-63.226 30.13 63.309 31.951a14 14 0 0 0 20.307-12.638z"
        fill="url(#New_Gradient_Swatch_16)"
      />
      <path
        d="m205.9 315.371a14 14 0 0 0 -20.022 12.5l-.368 36.944a13.977 13.977 0 0 0 20.307 12.638l63.306-31.953z"
        fill="url(#New_Gradient_Swatch_16-2)"
      />
      <circle
        cx="256"
        cy="347.09"
        fill="url(#New_Gradient_Swatch_16-3)"
        r="22"
      />
      <path
        d="m384.456 160.29c-6.531-6.481-16.6-6.4-28.27-6.311-1.371.01-2.767.021-4.186.021a38 38 0 0 0 0 76c23.2 0 38-35.458 38-54 0-6.871-1.813-12.009-5.544-15.71z"
        fill="url(#New_Gradient_Swatch_1-2)"
      />
      <path
        d="m160 154c-1.419 0-2.815-.011-4.186-.021-11.668-.094-21.74-.17-28.27 6.311-3.731 3.7-5.544 8.839-5.544 15.71 0 18.542 14.8 54 38 54a38 38 0 0 0 0-76z"
        fill="url(#New_Gradient_Swatch_1-3)"
      />
      <path
        d="m352 58h-192a6 6 0 0 0 -6 6v144c0 66 67.381 102 102 102s102-36 102-102v-144a6 6 0 0 0 -6-6z"
        fill="url(#New_Gradient_Swatch_1-4)"
      />
      <circle cx="204.576" cy="172" fill="#606082" r="12" />
      <circle cx="307.424" cy="172" fill="#606082" r="12" />
      <path
        d="m229.913 249.522a12 12 0 0 0 12 12h28.174a12 12 0 0 0 0-24h-28.174a12 12 0 0 0 -12 12z"
        fill="#f1cccd"
      />
      <path
        d="m263.232 174.016a12 12 0 0 0 -16.64 3.328l-16 24a12 12 0 0 0 4.617 17.389l16 8a12 12 0 1 0 10.733-21.466l-3.841-1.921 8.46-12.69a12 12 0 0 0 -3.329-16.64z"
        fill="#f1cccd"
      />
      <path
        d="m357.676 191.978s-11.2-45.252-21.313-59.092a8.025 8.025 0 0 1 -.149-9.265c5.607-8.259 14.108-26.535 10.351-58.273 0 0 35.478 18.164 35.478 48.522 0 41.557-24.367 78.108-24.367 78.108z"
        fill="url(#New_Gradient_Swatch_3)"
      />
      <path
        d="m154.324 191.978s8.243-46.423 17.661-59.61a8.085 8.085 0 0 0 .589-8.556c-4.363-8.1-10.91-26.249-7.139-58.464 0 0-35.478 18.164-35.478 48.522 0 41.557 24.367 78.108 24.367 78.108z"
        fill="url(#New_Gradient_Swatch_3-2)"
      />
      <path
        d="m368 64c0 29.12-66.065 51.721-106.478 50.391-41.925-1.38-111.438-11.3-146.673-55.449a7.988 7.988 0 0 1 6.077-12.932c36.878-.914 85.186-34.544 130.161-39.1 64-6.475 116.913 25.09 116.913 57.09z"
        fill="url(#New_Gradient_Swatch_3-3)"
      />
    </g>
  </g>
</svg>