<svg class="dv_logo_svg" version="1.1" id="Layer_1" xmlns="http://www.w3.org/2000/svg" xmlns:xlink="http://www.w3.org/1999/xlink" x="0px" y="0px" viewBox="0 0 483 87" style="enable-background:new 0 0 483 87;" xml:space="preserve">
    <g>
        <g>
            <path d="M1.6,23.5c0.1-1.3,0.7-1.7,1.7-0.9C4.9,23.8,22.7,37.7,24,38.8c0.9,0.7,1.6,0.7,2.5,0
                c4.6-3.6,18.4-14.4,20.7-16.2c0.3-0.2,0.9-0.5,1.2-0.4c0.4,0.2,0.7,0.7,0.7,1.1c0,4-0.1,7.9-0.3,11.9c0,0.7-0.8,1.4-1.4,1.9
                C44,39.9,30,50.9,26.5,53.6c-0.4,0.3-1.3,0.4-1.8,0.2c-1.6-1-8.2-6-9.9-7.3c-0.3-0.2-0.9-0.3-1.1-0.2c-0.3,0.2-0.4,0.7-0.4,1.1
                c0,3.8-0.1,7.7,0,11.5c0,1.6-0.2,2.9-1.6,4c-2.8,2.2-9.7,7.4-9.7,7.4S1.5,23.9,1.6,23.5z"></path>
            <path d="M49.3,68.7c0,0.4-0.3,1-0.6,1.2c-0.3,0.1-0.9-0.1-1.3-0.4c-5.5-4.3-11-8.6-16.5-12.9c-1.4-1.1-1.5-2-0.1-3.1
                c2.2-1.7,4.4-3.5,6.6-5.1c0.4-0.3,1.3-0.3,1.6,0c3.1,2.3,6.1,4.7,9.1,7.2c0.5,0.4,0.8,1.3,0.9,1.9C49.3,59.7,49.4,67.3,49.3,68.7z
                "></path>
        </g>
        <g>
            <path d="M83.2,70.9c-6.9,0-12.5-2.2-16.8-6.7c-4.3-4.5-6.5-10.3-6.5-17.5c0-7.6,2.2-13.7,6.6-18.4c4.4-4.7,10.2-7,17.4-7
                c6.8,0,12.4,2.2,16.6,6.7c4.2,4.5,6.3,10.4,6.3,17.7c0,7.5-2.2,13.6-6.6,18.2S90.2,70.9,83.2,70.9z M83.6,30.7
                c-3.8,0-6.8,1.4-9,4.3s-3.3,6.6-3.3,11.3c0,4.7,1.1,8.5,3.3,11.3c2.2,2.8,5.1,4.1,8.8,4.1c3.7,0,6.7-1.3,8.9-4
                c2.2-2.7,3.3-6.4,3.3-11.2c0-5-1.1-8.8-3.2-11.6C90.2,32,87.3,30.7,83.6,30.7z"></path>
            <path d="M117.2,70.1V22.2h17c17,0,25.5,7.8,25.5,23.4c0,7.5-2.3,13.4-7,17.9c-4.6,4.5-10.8,6.7-18.6,6.7H117.2z M128,31v30.4h5.3
                c4.7,0,8.3-1.4,11-4.2c2.7-2.8,4-6.6,4-11.5c0-4.6-1.3-8.2-4-10.8c-2.6-2.6-6.3-3.9-11.1-3.9H128z"></path>
            <path d="M198.8,70.1h-28.7V22.2h27.6V31h-16.8v10.7h15.7v8.8h-15.7v11h17.9V70.1z"></path>
            <path d="M249.1,70.1h-12.4l-7.5-12.3c-0.6-0.9-1.1-1.8-1.6-2.5c-0.5-0.7-1-1.4-1.6-1.9c-0.5-0.5-1.1-0.9-1.6-1.2
                c-0.6-0.3-1.2-0.4-1.9-0.4h-2.9v18.3h-10.8V22.2H226c11.6,0,17.4,4.3,17.4,13c0,1.7-0.3,3.2-0.8,4.6c-0.5,1.4-1.2,2.7-2.2,3.8
                c-0.9,1.1-2.1,2.1-3.4,2.9c-1.3,0.8-2.8,1.5-4.4,1.9v0.1c0.7,0.2,1.4,0.6,2.1,1.1c0.7,0.5,1.3,1.1,1.9,1.8
                c0.6,0.7,1.2,1.4,1.8,2.2s1.1,1.5,1.6,2.3L249.1,70.1z M219.7,30.3v13.3h4.7c2.3,0,4.2-0.7,5.6-2c1.4-1.4,2.1-3,2.1-5
                c0-4.2-2.5-6.3-7.5-6.3H219.7z"></path>
            <path d="M299.1,70.1h-10.9L268.5,40c-1.2-1.8-2-3.1-2.4-4h-0.1c0.2,1.7,0.3,4.3,0.3,7.8v26.3H256V22.2h11.6l19,29.2
                c0.9,1.3,1.7,2.6,2.4,3.9h0.1c-0.2-1.1-0.3-3.3-0.3-6.6V22.2h10.2V70.1z"></path>
            <path d="M346.8,68.4c-3.5,1.7-8.1,2.5-13.7,2.5c-7.4,0-13.1-2.2-17.3-6.5c-4.2-4.3-6.3-10.1-6.3-17.3c0-7.7,2.4-13.9,7.1-18.6
                c4.7-4.8,10.9-7.2,18.4-7.2c4.7,0,8.6,0.6,11.8,1.8v10.4c-3.2-1.9-6.9-2.9-11-2.9c-4.5,0-8.1,1.4-10.9,4.2
                c-2.8,2.8-4.1,6.7-4.1,11.5c0,4.6,1.3,8.3,3.9,11.1c2.6,2.8,6.1,4.1,10.5,4.1c4.2,0,8.1-1,11.6-3.1V68.4z"></path>
            <path d="M386.1,70.1h-28.5V22.2h10.8v39.2h17.7V70.1z"></path>
            <path d="M438.6,70.1h-11.8l-3.4-10.7h-17L403,70.1h-11.7l17.4-47.9h12.8L438.6,70.1z M421,51.1L415.8,35c-0.4-1.2-0.6-2.6-0.8-4.3
                h-0.3c-0.1,1.4-0.4,2.8-0.8,4.2l-5.2,16.2H421z"></path>
            <path d="M457.8,53.6v16.5H447V22.2h16.9c12.1,0,18.1,5.1,18.1,15.3c0,4.8-1.7,8.7-5.2,11.7s-8.1,4.5-13.9,4.5H457.8z M457.8,30.5
                v14.9h4.2c5.7,0,8.6-2.5,8.6-7.6c0-4.9-2.9-7.4-8.6-7.4H457.8z"></path>
        </g>
    </g>
</svg>
