<svg id="Layer_5" enable-background="new 0 0 64 64" height="512" viewBox="0 0 64 64" width="512" xmlns="http://www.w3.org/2000/svg"><g><g><g><path d="m18 4v8c0 1.1-.9 2-2 2h-2v2.59c0 .78-.63 1.41-1.41 1.41-.38 0-.74-.15-1-.41l-3.59-3.59h-4c-1.1 0-2-.9-2-2v-8c0-1.1.9-2 2-2h12c1.1 0 2 .9 2 2z" fill="#e6e9ed"/></g><g><path d="m62 52v8c0 1.1-.9 2-2 2h-12c-1.1 0-2-.9-2-2v-8c0-1.1.9-2 2-2h2v-2.59c0-.78.63-1.41 1.41-1.41.38 0 .74.15 1 .41l3.59 3.59h4c1.1 0 2 .9 2 2z" fill="#e6e9ed"/></g><g><path d="m18 51h4v11h-4z" fill="#f0d0b4"/></g><g><path d="m23.45 36.73 1.55 9.27 4-5 4 5 .57-3.41 2.43.41 2 2v17h-16v-11h-4-2v-6.44c0-3.82 2.69-7.1 6.43-7.85l.98-.19z" fill="#fcd770"/></g><g><path d="m48 34v8.15c0 .89-.22 1.75-.63 2.51s-1 1.42-1.74 1.92c-2.11 1.41-4.92 1.13-6.72-.67l-.91-.91-2-2-2.43-.41.96-5.75 2.13.71c.88.3 1.68.79 2.34 1.45l2 2h1v-7z" fill="#fcd770"/></g><g><path d="m34.53 36.84-.96 5.75-.57 3.41-4-5 3-5z" fill="#ffc729"/></g><g><path d="m26 36 3 5-4 5-1.55-9.27-.04-.21z" fill="#ffc729"/></g><g><path d="m44 26.17v3.83c0 1.1-.45 2.1-1.17 2.83l-.83.63c-.59.34-1.27.54-2 .54-1.1 0-2-.9-2-2v-.76c0-.76.43-1.45 1.11-1.79l.89-.45v-4l-.89-.45c-.68-.34-1.11-1.03-1.11-1.79v-.76c0-.55.22-1.05.59-1.41.26-.27.59-.46.97-.54.14-.03.29-.05.44-.05 2.21 0 4 1.79 4 4z" fill="#b4dd7f"/></g><g><path d="m22 26v-3.17c0-.99.21-1.95.62-2.83.33-.74.8-1.42 1.38-2l.08.04c2.58 1.29 5.42 1.96 8.3 1.96h3.62v3 3c0 3.64-1.59 6.23-4.01 7.35-.89.43-1.91.65-2.99.65l-2.99-.65c-.76-.35-1.44-.84-2.01-1.47-.9-.99-1.53-2.3-1.82-3.88-.12-.62-.18-1.29-.18-2z" fill="#f0d0b4"/></g><g><path d="m26.01 33.35 2.99.65c1.08 0 2.1-.22 2.99-.65l.01.01v2.64l-3 5-3-5v-2.64z" fill="#f0d0b4"/></g><g><path d="m42.83 32.83c.72-.73 1.17-1.73 1.17-2.83v-3.83c.31-.11.65-.17 1-.17 1.66 0 3 1.34 3 3v5h-6v-.54z" fill="#f0d0b4"/></g><g><path d="m22 26c0 .71.06 1.38.18 2h-.18c-1.1 0-2.1-.45-2.83-1.17-.72-.73-1.17-1.73-1.17-2.83 0-1.21.53-2.29 1.38-3.02.71-.61 1.62-.98 2.62-.98h.62c-.41.88-.62 1.84-.62 2.83z" fill="#f0d0b4"/></g><g><path d="m36 20h-3.62c-2.88 0-5.72-.67-8.3-1.96l-.08-.04c-.58.58-1.05 1.26-1.38 2h-.62c-1 0-1.91.37-2.62.98l-.12-.18c-.82-1.17-1.26-2.57-1.26-4 0-1.6.65-3.05 1.7-4.1s2.5-1.7 4.1-1.7h2.3c1.26-1.24 2.98-2 4.9-2h.63c4.62 0 8.37 3.75 8.37 8.37 0 .92-.15 1.82-.44 2.68-.38.08-.71.27-.97.54-.37.36-.59.86-.59 1.41v.76l-2 .24z" fill="#656d78"/></g></g><g><circle cx="32" cy="24" r="1"/><circle cx="26" cy="24" r="1"/><path d="m29 31c2.206 0 4-1.794 4-4h-2c0 1.103-.897 2-2 2s-2-.897-2-2h-2c0 2.206 1.794 4 4 4z"/><path d="m46.185 47.412c1.762-1.176 2.815-3.142 2.815-5.261v-13.151c0-2.206-1.794-4-4-4v-1c0-2.471-1.806-4.515-4.164-4.915.105-.565.164-1.137.164-1.716 0-5.166-4.203-9.369-9.369-9.369h-.631c-2.021 0-3.864.759-5.274 2h-1.927c-1.871 0-3.568.76-4.799 1.988v-7.988c0-1.654-1.346-3-3-3h-12c-1.654 0-3 1.346-3 3v8c0 1.654 1.346 3 3 3h3.586l3.293 3.293c.449.449 1.071.707 1.707.707 1.331 0 2.414-1.083 2.414-2.414v-1.586h1c.487 0 .941-.128 1.348-.335-.223.672-.348 1.388-.348 2.134 0 1.447.406 2.835 1.137 4.066-.7.86-1.137 1.942-1.137 3.135 0 2.543 1.916 4.626 4.376 4.937.595 2.22 1.872 3.969 3.624 5.005v1.238l-2.766.553c-4.191.839-7.234 4.55-7.234 8.826v7.441h2v11h22v-15.716c1.089.779 2.381 1.186 3.685 1.186 1.214 0 2.435-.348 3.5-1.058zm.815-18.412v4h-3.026c.635-.838 1.026-1.87 1.026-3v-3c1.103 0 2 .897 2 2zm-14.555 8.202.955.318-1.018 6.107-2.167-2.709zm.555-1.923v-1.337c2.468-1.46 4-4.328 4-7.942v-3.236c0 1.144.636 2.172 1.658 2.684l.342.17v2.764l-.342.171c-1.022.511-1.658 1.54-1.658 2.683v.764c0 1.654 1.346 3 3 3 .342 0 .677-.035 1-.101v4.687l-1.291-1.291c-.765-.765-1.711-1.35-2.736-1.691zm10-11.279v6c0 1.654-1.346 3-3 3-.552 0-1-.448-1-1v-.764c0-.382.212-.725.553-.895l1.447-.723v-5.236l-1.447-.724c-.341-.17-.553-.512-.553-.894v-.764c0-.552.448-1 1-1 1.654 0 3 1.346 3 3zm-19.201-12h.284c-.685 1.178-1.083 2.542-1.083 4h2c0-3.309 2.691-6 6-6h.631c4.063 0 7.369 3.306 7.369 7.369 0 .657-.109 1.3-.281 1.929-1.013.483-1.719 1.508-1.719 2.702v-3h-4.622c-2.711 0-5.424-.641-7.931-1.895l-.645-.322-.51.51c-.506.507-.933 1.086-1.281 1.707h-.011c-.834 0-1.609.225-2.301.588-.453-.858-.699-1.807-.699-2.789 0-2.647 2.152-4.799 4.799-4.799zm-6.799 0c0 .552-.448 1-1 1h-3v3.586c0 .337-.468.532-.707.293l-3.879-3.879h-4.414c-.552 0-1-.448-1-1v-8c0-.552.448-1 1-1h12c.552 0 1 .448 1 1zm2 12c0-1.375.935-2.524 2.198-2.877-.126.558-.198 1.129-.198 1.705v3.172c0 .281.014.554.032.826-1.178-.405-2.032-1.512-2.032-2.826zm4 2v-3.172c0-1.302.448-2.58 1.246-3.601 2.541 1.162 5.338 1.773 8.132 1.773h2.622v5c0 4.252-2.355 7-6 7s-6-2.748-6-7zm6 9c.702 0 1.367-.091 2-.249v.972l-2 3.334-2-3.334v-.972c.633.158 1.298.249 2 .249zm-3.495 2.118 2.28 3.799-2.167 2.709-1.054-6.32zm-6.505 14.882h2v9h-2zm17.707-9.707-1.414 1.414 1.707 1.707v15.586h-14v-15h-2v4h-4v-5.441c0-3.317 2.355-6.195 5.603-6.857l1.779 10.672 4.618-5.773 4.618 5.773 1.703-10.213 1.019.34c.732.245 1.409.663 1.955 1.209l2.291 2.29h2.414v-7h4v7.151c0 1.448-.72 2.793-1.925 3.597-1.709 1.139-4.001.911-5.453-.54z"/><path d="m13 7h2v2h-2z"/><path d="m5 7h2v2h-2z"/><path d="m9 7h2v2h-2z"/><path d="m57 55h2v2h-2z"/><path d="m49 55h2v2h-2z"/><path d="m53 55h2v2h-2z"/><path d="m60 49h-3.586l-3.293-3.293c-.449-.449-1.071-.707-1.707-.707-1.331 0-2.414 1.083-2.414 2.414v1.586h-1c-1.654 0-3 1.346-3 3v8c0 1.654 1.346 3 3 3h12c1.654 0 3-1.346 3-3v-8c0-1.654-1.346-3-3-3zm1 11c0 .552-.448 1-1 1h-12c-.552 0-1-.448-1-1v-8c0-.552.448-1 1-1h3v-3.586c0-.338.47-.531.707-.293l3.879 3.879h4.414c.552 0 1 .448 1 1z"/></g></g></svg>