<svg id="Layer_1" height="512" viewBox="0 0 150 150" width="512" xmlns="http://www.w3.org/2000/svg" data-name="Layer 1">
    <circle cx="75" cy="75" fill="#efc84a" r="64"/>
    <path d="m99.69 69.18h-28.21v-20.99h28.21l-4.65 10.5z" fill="#d15241"/>
    <path d="m58.31 43.06h28.21v20.98h-28.21z" fill="#e56353"/>
    <g fill="#3a556a">
        <path d="m58.31 39.62a1.76 1.76 0 0 0 -1.76 1.77v63h3.53v-63a1.77 1.77 0 0 0 -1.77-1.77z"/>
        <path d="m62.72 103.74h-8.82a1.37 1.37 0 0 0 -1.37 1.37v1.66h11.57v-1.66a1.37 1.37 0 0 0 -1.38-1.37z"/>
        <path d="m64.42 106.19h-12.21a1.9 1.9 0 0 0 -1.9 1.9v2.29h16v-2.29a1.9 1.9 0 0 0 -1.89-1.9z"/>
    </g>
</svg>
