<svg id="flat" height="512" viewBox="0 0 512 512" width="512" xmlns="http://www.w3.org/2000/svg"><path d="m256 496c-92.52051 0-167.791-75.27051-167.791-167.79053l-.209-120.1958 16-.02734.209 120.20947c0 83.71143 68.09276 151.8042 151.791 151.8042s151.791-68.09277 151.791-151.79053v-120.20947h16v120.20947c0 92.52002-75.27049 167.79053-167.791 167.79053z" fill="#8098ab"/><path d="m432 199.79a16.21752 16.21752 0 0 1 -16.21 16.21 25.55305 25.55305 0 0 1 -22.8501-14.12l-.9399-1.88-84.18994-42.1001-.37988-.18994a28.42425 28.42425 0 0 1 -4.79 5.72 28.798 28.798 0 0 1 -6.64018 4.57004v32h-80v-32a28.87964 28.87964 0 0 1 -11.42993-10.29l-.56006.28-84.01001 42.01-.93994 1.88a25.57512 25.57512 0 0 1 -22.85006 14.12 16.21338 16.21338 0 0 1 -10.12988-28.87l105.14988-84.12a32.15016 32.15016 0 0 1 19.99-7.01h89.5603a32.15016 32.15016 0 0 1 19.9897 7.01l105.1499 84.12a16.23967 16.23967 0 0 1 6.0801 12.66z" fill="#ffceb6"/><path d="m312 142.11a28.97523 28.97523 0 0 1 -4.31982 15.22l.12988.56994-.37988-.18994a28.42425 28.42425 0 0 1 -4.79 5.72 28.798 28.798 0 0 1 -6.64018 4.57v32h-80v-32a28.87964 28.87964 0 0 1 -11.42993-10.29l-.56006.28.31006-.66a28.97544 28.97544 0 0 1 -4.32007-15.22v-44.07a31.8906 31.8906 0 0 1 11.22-2.04h89.5603a31.88924 31.88924 0 0 1 11.2197 2.04z" fill="#ef5e3b"/><path d="m183.529 319.529-15.529 8.471 8 56h16l16-40z" fill="#e0edff"/><path d="m218.323 300.551-34.794 18.978 24.471 24.471 9.006-2.771z" fill="#ffbfa1"/><path d="m312 252.84v29.62a39.99933 39.99933 0 0 1 -28.24023 38.23l-27.75977 8.54v-129.23h40a95.3275 95.3275 0 0 1 16 52.84z" fill="#ffceb6"/><path d="m256 200v192h-40l-10.66992-112-2.60008-27.29a81.20045 81.20045 0 0 1 13.27-52.71z" fill="#ffceb6"/><path d="m272 40 11.02944-11.02945a16.97057 16.97057 0 0 1 12-4.97055 16.97054 16.97054 0 0 1 16.97056 16.97052v18.1851a53.8962 53.8962 0 0 0 24 44.84438h-24.00006a31.99994 31.99994 0 0 1 -31.99994-31.99994l-8-16.00006z" fill="#b1712c"/><path d="m280 64-.20351 21.80813c.20351 7.44671-10.54165 18.19187-23.79649 18.19187a24 24 0 0 1 -24-24v-16z" fill="#ffceb6"/><path d="m280 64v-8a24 24 0 0 0 -24-24 24 24 0 0 0 -24 24v8z" fill="#c78640"/><path d="m256 328a8 8 0 0 1 -8-8v-40h16v40a8 8 0 0 1 -8 8z" fill="#ffbfa1"/><path d="m216 392-8 16 32 48h16v-64z" fill="#e0edff"/><path d="m307.91016 225.24a94.98653 94.98653 0 0 0 -11.91016-25.24h-80a81.20045 81.20045 0 0 0 -13.27 52.71l2.6001 27.29h106.6699v-27.16a95.08784 95.08784 0 0 0 -4.08984-27.6z" fill="#ffb401"/><path d="m248 240h16v40h-16z" fill="#ffa100"/></svg>