<svg height="512" viewBox="0 0 64 64" width="512" xmlns="http://www.w3.org/2000/svg"><g id="paint-painted-brush-house-home"><path d="m43.2 43h-36.2v-21.49l16.81-12.48a1.98 1.98 0 0 1 2.38 0l16.81 12.48z" fill="#e0e0e2"/><path d="m43.2 43h-4l-.2-21.49-16-11.88.81-.6a1.98 1.98 0 0 1 2.38 0l16.81 12.48z" fill="#c6c5ca"/><path d="m61 27-3.2 16h-17.6l-3.2-16z" fill="#fee9ab"/><path d="m57.8 43-.8 4h-5-6-5l-.8-4z" fill="#898890"/><path d="m61 27-3.2 16h-4l3.2-16z" fill="#ffde55"/><path d="m57.8 43-.8 4h-4l.8-4z" fill="#57565c"/><path d="m55 27v6a2 2 0 0 1 -4 0 2.015 2.015 0 0 0 -2-2 2.006 2.006 0 0 0 -2 2v2a2.015 2.015 0 0 1 -2 2 2.006 2.006 0 0 1 -2-2v-8z" fill="#ff7956"/><path d="m55 27v6a2.015 2.015 0 0 1 -2 2 2 2 0 0 1 -1-.27 1.813 1.813 0 0 0 .41-.32 1.955 1.955 0 0 0 .59-1.41v-6z" fill="#ff5023"/><path d="m52 47v11a3 3 0 0 1 -6 0v-11z" fill="#898890"/><path d="m52 47v11a3 3 0 0 1 -4.5 2.6 3 3 0 0 0 1.5-2.6v-11z" fill="#57565c"/><path d="m45.63 18a2.007 2.007 0 0 1 .61 2.52l-.17.35a2 2 0 0 1 -2.98.71l-.09-.07-16.81-12.48a1.98 1.98 0 0 0 -2.38 0l-16.81 12.48-.09.07a2 2 0 0 1 -2.98-.71l-.17-.35a2.007 2.007 0 0 1 .61-2.52l19.45-14.14a2.011 2.011 0 0 1 2.36 0l9.81 7.13 6.01 4.37z" fill="#ff3051"/><path d="m42 3a2.006 2.006 0 0 1 2 2 2.015 2.015 0 0 1 -2 2h-6.01a2 2 0 0 1 -1.99-2 2.015 2.015 0 0 1 2-2z" fill="#ff3051"/><path d="m42 7v8.36l-6.01-4.37v-3.99h.01z" fill="#c0ab91"/><path d="m40.2 43 .8 4h-36a2.006 2.006 0 0 1 -2-2 2.015 2.015 0 0 1 2-2z" fill="#806749"/><path d="m31 23v10a2.006 2.006 0 0 1 -2 2 2.015 2.015 0 0 1 -2-2v-2a2.006 2.006 0 0 0 -2-2 2.015 2.015 0 0 0 -2 2v4a2.006 2.006 0 0 1 -2 2 2.015 2.015 0 0 1 -2-2v-12z" fill="#fee9ab"/><path d="m31 23v10a2 2 0 0 1 -3 1.73 2 2 0 0 0 1-1.73v-10z" fill="#ffde55"/><path d="m46.24 20.52-.17.35a2 2 0 0 1 -2.98.71l-1-.75.15-.31a2.007 2.007 0 0 0 -.61-2.52l-2.63-1.91-6.01-4.37-9.99-7.26.82-.6a2.011 2.011 0 0 1 2.36 0l10.81 7.86 6.01 4.37 2.63 1.91a2.007 2.007 0 0 1 .61 2.52z" fill="#cd2a00"/><path d="m45 5a2.015 2.015 0 0 1 -2 2h-4a2.015 2.015 0 0 0 2-2 2.006 2.006 0 0 0 -2-2h4a2.006 2.006 0 0 1 2 2z" fill="#cd2a00"/><path d="m43 7v9.09l-3-2.18v-6.91z" fill="#a78966"/><path d="m61.77 26.37a.971.971 0 0 0 -.77-.37h-17v-3.05a2.458 2.458 0 0 0 .28.02 2.84 2.84 0 0 0 .7-.08 3 3 0 0 0 1.98-1.58l.18-.35a3 3 0 0 0 -.92-3.77l-3.22-2.34v-7.03a3 3 0 0 0 -1-5.82h-6a3.009 3.009 0 0 0 -3 3 2.979 2.979 0 0 0 1.99 2.81v1.22l-8.23-5.98a2.971 2.971 0 0 0 -3.52 0l-19.46 14.14a3 3 0 0 0 -.92 3.77l.18.35a3 3 0 0 0 1.98 1.58 2.955 2.955 0 0 0 .98.05v19.06h-1a3 3 0 0 0 -3 3 3.009 3.009 0 0 0 3 3h40v10a4 4 0 0 0 8 0v-10h4a1 1 0 0 0 .98-.8l4-20a.99.99 0 0 0 -.21-.83zm-7.77 1.63v5a1 1 0 0 1 -2 0 3 3 0 0 0 -6 0v2a1 1 0 0 1 -2 0v-7zm-18-24h6a1 1 0 0 1 0 2h-6a1 1 0 0 1 0-2zm5 4v5.4l-4.01-2.92v-2.48zm-35.51 12.94a.976.976 0 0 1 -.66-.52l-.18-.35a1 1 0 0 1 .31-1.26l19.45-14.15a1.022 1.022 0 0 1 1.18 0l19.45 14.15a1 1 0 0 1 .31 1.26l-.18.35a.976.976 0 0 1 -.66.52.933.933 0 0 1 -.83-.17l-16.89-12.54a2.97 2.97 0 0 0 -3.58 0l-16.89 12.54a.933.933 0 0 1 -.83.17zm33.49 21.06h-30.98v-19.98l16.4-12.19a1.021 1.021 0 0 1 1.2 0l16.4 12.19v3.98h-5a.971.971 0 0 0 -.77.37.99.99 0 0 0 -.21.83zm-33.98 4a1 1 0 0 1 -1-1 .949.949 0 0 1 .31-.71.928.928 0 0 1 .69-.29h34.38l.4 2zm46 12a2 2 0 0 1 -4 0v-10h4zm5.18-12h-14.36l-.4-2h15.16zm.8-4h-15.96l-2.8-14h3.78v7a3 3 0 0 0 6 0v-2a1 1 0 0 1 2 0 3 3 0 0 0 6 0v-5h3.78z"/><path d="m31 22h-12a1 1 0 0 0 -1 1v12a3 3 0 0 0 6 0v-4a1 1 0 0 1 2 0v2a3 3 0 0 0 6 0v-10a1 1 0 0 0 -1-1zm-1 11a1 1 0 0 1 -2 0v-2a3 3 0 0 0 -6 0v4a1 1 0 0 1 -2 0v-11h10z"/></g></svg>