<svg height="512" viewBox="0 0 60 60" width="512" xmlns="http://www.w3.org/2000/svg">
    <g id="019---Victorian-Telephone" fill="none">
        <g id="Layer_4" transform="translate(1 1)">
            <path id="Shape" d="m58 54v4h-17c0-2.7614237-2.2385763-5-5-5h-14c-1.3265707-.0015948-2.5992671.5246773-3.5372949 1.4627051s-1.4642999 2.2107242-1.4627051 3.5372949h-17v-4c0-2.209139 1.790861-4 4-4h3c3.3137085 0 6-2.6862915 6-6v-5c0-10.317 5.429-18 16-18 11 0 16 8.7 16 18.44v4.56c0 3.3137085 2.6862915 6 6 6h3c2.209139 0 4 1.790861 4 4z" fill="#e8edfc"/>
            <path id="Shape" d="m54 50h-3c2.209139 0 4 1.790861 4 4v4h3v-4c0-2.209139-1.790861-4-4-4z" fill="#cad9fc"/>
            <path id="Shape" d="m45 44v-4.56c0-11.048-6.226-19.271-17.625-18.371 10.032.705 14.625 9.051 14.625 18.371v4.56c0 3.3137085 2.6862915 6 6 6h3c-3.3137085 0-6-2.6862915-6-6z" fill="#cad9fc"/>
            <path id="Shape" d="m16 30c-3.624-1.2-5.08-1-8-1-2.76142375 0-5-2.2385763-5-5v-9h8v.89c-.0007221 1.1923066.6119651 2.3011335 1.6217816 2.9350626 1.0098166.6339291 2.2747281.7037959 3.3482184.1849374.1-.033.03-.529.03 10.99z" fill="#e8edfc"/>
            <path id="Shape" d="m15.97 19.01c-.9358392.4562974-2.0281005.4636527-2.97.02v10.19c1.0138768.2033584 2.0154692.4637724 3 .78 0-11.519.07-11.023-.03-10.99z" fill="#cad9fc"/>
            <path id="Shape" d="m12 11h-10c-1.1045695 0-2 .8954305-2 2s.8954305 2 2 2h10c1.1045695 0 2-.8954305 2-2s-.8954305-2-2-2z" fill="#a4c2f7"/>
            <rect id="Rectangle-path" fill="#cad9fc" height="8" rx="1" width="24" x="17"/>
            <rect id="Rectangle-path" fill="#e8edfc" height="8" rx="1" width="21" x="17"/>
            <path id="Shape" d="m17 1v6h-3c-1.6568542 0-3 1.34314575-3 3v1h-9v-4c0-3.3137085 2.6862915-6 6-6z" fill="#cad9fc"/>
            <path id="Shape" d="m14 1v6h-3c-1.65685425 0-3 1.34314575-3 3v1h-6v-4c0-3.3137085 2.6862915-6 6-6z" fill="#e8edfc"/>
            <path id="Shape" d="m44 11h10c1.1045695 0 2 .8954305 2 2s-.8954305 2-2 2h-10c-1.1045695 0-2-.8954305-2-2s.8954305-2 2-2z" fill="#a4c2f7"/>
            <path id="Shape" d="m54 7v4h-9v-1c0-1.65685425-1.3431458-3-3-3h-1v-6h7c3.3137085 0 6 2.6862915 6 6z" fill="#cad9fc"/>
            <path id="Shape" d="m51 7v4h-6v-1c0-1.65685425-1.3431458-3-3-3h-1v-6h4c3.3137085 0 6 2.6862915 6 6z" fill="#e8edfc"/>
            <rect id="Rectangle-path" fill="#cad9fc" height="6" rx="2" width="18" x="40" y="15"/>
            <rect id="Rectangle-path" fill="#e8edfc" height="6" rx="2" width="15" x="40" y="15"/>
            <path id="Shape" d="m36 8v3c0 1.6568542-1.3431458 3-3 3h-8c-1.6568542 0-3-1.3431458-3-3v-3z" fill="#7facfa"/>
            <circle id="Oval" cx="29" cy="37" fill="#a4c2f7" r="12"/>
            <g fill="#fff">
                <circle id="Oval" cx="29" cy="31" r="2"/>
                <circle id="Oval" cx="23" cy="37" r="2"/>
                <circle id="Oval" cx="29" cy="43" r="2"/>
                <circle id="Oval" cx="35" cy="37" r="2"/>
            </g>
            <circle id="Oval" cx="29" cy="14" fill="#e8edfc" r="3"/>
        </g>
        <g id="Layer_3" fill="#fff" transform="translate(1 2)">
            <path id="Shape" d="m3 53c0-2.209139 1.790861-4 4-4h-3c-2.209139 0-4 1.790861-4 4v4h3z"/>
            <path id="Shape" d="m16 43c0-5.351-.308-9.586 1.859-14.339-2.866-.788-3.883-.661-6.859-.661-2.76142375 0-5-2.2385763-5-5v-9h-1c-1.1045695 0-2-.8954305-2-2s.8954305-2 2-2v-4c0-3.3137085 2.6862915-6 6-6h-3c-3.3137085 0-6 2.6862915-6 6v4c-1.1045695 0-2 .8954305-2 2s.8954305 2 2 2h1v9c0 2.7614237 2.23857625 5 5 5 2.976 0 3.993-.127 6.859.661-2.167 4.753-1.859 8.988-1.859 14.339 0 3.3137085-2.6862915 6-6 6h3c3.3137085 0 6-2.6862915 6-6z"/>
        </g>
        <g id="Layer_2" fill="#428dff">
            <path id="Shape" d="m17 38c0 7.1797017 5.8202983 13 13 13s13-5.8202983 13-13-5.8202983-13-13-13c-7.1762751.008266-12.991734 5.8237249-13 13zm24 0c0 6.0751322-4.9248678 11-11 11s-11-4.9248678-11-11 4.9248678-11 11-11c6.0721626.0071635 10.9928365 4.9278374 11 11z"/>
            <path id="Shape" d="m27 32c0 1.6568542 1.3431458 3 3 3s3-1.3431458 3-3-1.3431458-3-3-3-3 1.3431458-3 3zm4 0c0 .5522847-.4477153 1-1 1s-1-.4477153-1-1 .4477153-1 1-1 1 .4477153 1 1z"/>
            <path id="Shape" d="m24 35c-1.6568542 0-3 1.3431458-3 3s1.3431458 3 3 3 3-1.3431458 3-3-1.3431458-3-3-3zm0 4c-.5522847 0-1-.4477153-1-1s.4477153-1 1-1 1 .4477153 1 1-.4477153 1-1 1z"/>
            <path id="Shape" d="m30 41c-1.6568542 0-3 1.3431458-3 3s1.3431458 3 3 3 3-1.3431458 3-3-1.3431458-3-3-3zm0 4c-.5522847 0-1-.4477153-1-1s.4477153-1 1-1 1 .4477153 1 1-.4477153 1-1 1z"/>
            <path id="Shape" d="m36 41c1.6568542 0 3-1.3431458 3-3s-1.3431458-3-3-3-3 1.3431458-3 3 1.3431458 3 3 3zm0-4c.5522847 0 1 .4477153 1 1s-.4477153 1-1 1-1-.4477153-1-1 .4477153-1 1-1z"/>
            <path id="Shape" d="m57.78 15.116c.3082447-.7558291.2921647-1.6051487-.0444689-2.3487684-.3366335-.7436198-.9642052-1.3161196-1.7355311-1.5832316v-3.184c-.0044086-3.86416566-3.1358343-6.99559136-7-7h-6.278c-.3544126-.61675126-1.0106732-.997855-1.722-1h-22c-.7113268.002145-1.3675874.38324874-1.722 1h-8.278c-3.86416566.00440864-6.99559136 3.13583434-7 7v3.184c-1.37654748.4848523-2.2026937 1.8918441-1.95538732 3.330178.24730637 1.4383339 1.49595006 2.4885874 2.95538732 2.485822v8c.00330738 3.3123376 2.68766243 5.9966926 6 6h3c.8323703.0287669 1.6594893.1440542 2.468.344-1.0091938 2.7727035-1.5065933 5.7055988-1.468 8.656v5c-.0033061 2.7600532-2.2399468 4.9966939-5 5h-3c-2.76005315.0033061-4.99669388 2.2399468-5 5v4c0 .5522847.44771525 1 1 1h17c.5522847 0 1-.4477153 1-1 0-2.209139 1.790861-4 4-4h14c2.209139 0 4 1.790861 4 4 0 .5522847.4477153 1 1 1h17c.5522847 0 1-.4477153 1-1v-4c-.0033061-2.7600532-2.2399468-4.9966939-5-5h-3c-2.7600532-.0033061-4.9966939-2.2399468-5-5v-4.558c0-11.42-6.25-18.911-16-19.4v-3.23c.8460792-.3016706 1.5124645-.9665881 1.816-1.812h1.184c2.209139 0 4-1.790861 4-4v-2h3c.7113268-.002145 1.3675874-.38324874 1.722-1h.278c1.1045695 0 2 .8954305 2 2-.9969108-.0033772-1.9299297.4903213-2.4879119 1.316456-.5579821.8261347-.6675213 1.8760222-.2920881 2.799544-1.3052127.3514286-2.2142178 1.5323163-2.22 2.884v2c0 1.6568542 1.3431458 3 3 3h14c1.6568542 0 3-1.3431458 3-3v-2c-.0057822-1.3516837-.9147873-2.5325714-2.22-2.884zm-31.78.884h1.184c.3025307.846935.969065 1.5134693 1.816 1.816v3.228c-4.1284898.0568263-8.0731064 1.7167927-11 4.629v-5.673c-.0001481-.3440807-.1771808-.663919-.468675-.8467377s-.6565043-.2029374-.966325-.0532623c-.7740159.3758571-1.6874786.324016-2.414-.137-.6842224-.4223809-1.1114588-1.159345-1.138-1.963 1.6568542-.0035899 2.9970899-1.3496458 2.9935-3.0065s-1.3496458-2.9970899-3.0065-2.9935c0-1.1045695.8954305-2 2-2h2.278c.3544126.61675126 1.0106732.997855 1.722 1h3v2c0 2.209139 1.790861 4 4 4zm-17-13h8v4h-2c-2.209139 0-4 1.790861-4 4h-7v-3c.00330612-2.76005315 2.23994685-4.99669388 5-5zm-7 11c0-.5522847.44771525-1 1-1h10c.5522847 0 1 .4477153 1 1s-.4477153 1-1 1h-10c-.55228475 0-1-.4477153-1-1zm10 15h-3c-2.209139 0-4-1.790861-4-4v-8h6.007c.031748 1.4921627.8143937 2.8675281 2.081 3.657.8668905.5460498 1.8941615.7799374 2.912.663v6.912c-.252.4-.489.818-.711 1.254-1.0748488-.2838059-2.1780048-.4468141-3.289-.486zm33 11.442v4.558c.0044086 3.8641657 3.1358343 6.9955914 7 7h3c1.6568542 0 3 1.3431458 3 3v3h-15.083c-.4918328-2.8850396-2.9903399-4.996335-5.917-5h-14c-2.9266601.003665-5.4251672 2.1149604-5.917 5h-15.083v-3c0-1.6568542 1.34314575-3 3-3h3c3.8641657-.0044086 6.9955914-3.1358343 7-7v-5c0-8.219 3.94-17 15-17s15 9.01 15 17.442zm-15-24.442c-.5522847 0-1-.4477153-1-1s.4477153-1 1-1 1 .4477153 1 1-.4477153 1-1 1zm6-4c0 1.1045695-.8954305 2-2 2h-1.184c-.4174114-1.1981296-1.5472421-2.0009455-2.816-2.0009455s-2.3985886.8028159-2.816 2.0009455h-1.184c-1.1045695 0-2-.8954305-2-2v-2h12zm-17-4v-6h22v6zm24-1v-4h6c2.7600532.00330612 4.9966939 2.23994685 5 5v3h-7c0-2.209139-1.790861-4-4-4zm2 6h10c.5522847 0 1 .4477153 1 1s-.4477153 1-1 1h-10c-.5522847 0-1-.4477153-1-1s.4477153-1 1-1zm13 7c0 .5522847-.4477153 1-1 1h-14c-.5522847 0-1-.4477153-1-1v-2c0-.5522847.4477153-1 1-1h14c.5522847 0 1 .4477153 1 1z"/>
        </g>
    </g>
</svg>
