<svg version="1.1" id="Capa_1" xmlns="http://www.w3.org/2000/svg" xmlns:xlink="http://www.w3.org/1999/xlink" x="0px" y="0px" viewBox="0 0 512 512" style="enable-background:new 0 0 512 512;" xml:space="preserve"><path style="fill:#CCCCCC;" d="M486.4,460.8V119.467c0-14.14-11.46-25.6-25.6-25.6H51.2c-14.14,0-25.6,11.46-25.6,25.6V460.8H486.4z"/><path style="fill:#999999;" d="M503.467,435.2v25.6c0,14.14-11.46,25.6-25.6,25.6H34.133c-14.14,0-25.6-11.46-25.6-25.6v-25.6H179.2l17.067,17.067h119.467L332.8,435.2H503.467z"/><path style="fill:#29ABE2;" d="M68.267,136.533h375.467V384H68.267V136.533z"/><path style="fill:#E6E6E6;" d="M170.667,68.267h8.533v68.267h-8.533c-18.85,0-34.133-15.283-34.133-34.133S151.817,68.267,170.667,68.267z"/><path style="fill:#DA4836;" d="M187.733,51.2h51.2v102.4h-51.2c-4.71,0-8.533-3.823-8.533-8.533V59.733C179.2,55.023,183.023,51.2,187.733,51.2z"/><g><path style="fill:#E6E6E6;" d="M375.467,25.6v153.6l-136.533-25.6V51.2L375.467,25.6z"/><path style="fill:#E6E6E6;" d="M196.267,153.6h42.667v89.6c0,11.785-9.549,21.333-21.333,21.333c-11.785,0-21.333-9.549-21.333-21.333V153.6z"/></g><path style="fill:#DA4836;" d="M196.267,221.867h42.667V243.2c0,11.785-9.549,21.333-21.333,21.333c-11.785,0-21.333-9.549-21.333-21.333V221.867z"/><path d="M503.467,426.667h-8.533v-307.2c0-18.85-15.283-34.133-34.133-34.133H384V25.6c0-4.71-3.823-8.533-8.533-8.533c-0.529,0-1.05,0.051-1.57,0.145l-51.2,9.6l-8.533,1.604L238.14,42.667h-50.406c-9.429,0-17.067,7.637-17.067,17.067c-16.947,0.026-32.273,10.069-39.049,25.6H51.2c-18.85,0-34.133,15.283-34.133,34.133v307.2H8.533C3.823,426.667,0,430.49,0,435.2v25.6c0,18.85,15.283,34.133,34.133,34.133h443.733c18.85,0,34.133-15.283,34.133-34.133v-25.6C512,430.49,508.177,426.667,503.467,426.667z M366.933,35.883V168.96l-119.467-22.443V58.283L366.933,35.883z M230.4,213.333h-25.6v-51.2h25.6V213.333z M204.8,230.4h25.6v12.8c0,7.066-5.734,12.8-12.8,12.8c-7.066,0-12.8-5.734-12.8-12.8V230.4z M247.467,163.84l17.067,3.2v12.16h-17.067V163.84z M187.733,59.733H230.4v85.333h-42.667V59.733z M170.667,76.8V128c-14.14,0-25.6-11.46-25.6-25.6S156.527,76.8,170.667,76.8z M34.133,119.467c0-9.429,7.637-17.067,17.067-17.067H128c0.026,23.552,19.115,42.641,42.667,42.667c0,9.429,7.637,17.067,17.067,17.067V243.2c0,16.495,13.372,29.867,29.867,29.867s29.867-13.372,29.867-29.867v-46.933h25.6c4.71,0,8.533-3.823,8.533-8.533v-17.451l92.297,17.306c0.521,0.094,1.041,0.145,1.57,0.145c4.71,0,8.533-3.823,8.533-8.533v-76.8h76.8c9.429,0,17.067,7.637,17.067,17.067v307.2H332.8c-2.261,0-4.429,0.896-6.033,2.492l-14.566,14.575H199.799l-14.566-14.575c-1.604-1.596-3.772-2.492-6.033-2.492H34.133L34.133,119.467z M494.933,460.8c0,9.429-7.637,17.067-17.067,17.067H34.133c-9.429,0-17.067-7.637-17.067-17.067v-17.067h158.601l14.566,14.566c1.596,1.604,3.772,2.5,6.033,2.5h119.467c2.261,0,4.437-0.896,6.033-2.5l14.566-14.566h158.601V460.8z"/><path d="M452.267,384V136.533c0-4.71-3.823-8.533-8.533-8.533H409.6v17.067h25.6v230.4H76.8v-230.4h42.667V128h-51.2c-4.71,0-8.533,3.823-8.533,8.533V384c0,4.71,3.823,8.533,8.533,8.533h375.467C448.444,392.533,452.267,388.71,452.267,384z"/><path d="M247.467,409.6h17.067v17.067h-17.067V409.6z"/><path d="M119.467,298.667h17.067v17.067h-17.067V298.667z"/><path d="M153.6,298.667h256v17.067h-256V298.667z"/><path d="M102.4,332.8H384v17.067H102.4V332.8z"/></svg>