<svg id="Capa_1" enable-background="new 0 0 512 512" height="512" viewBox="0 0 512 512" width="512" xmlns="http://www.w3.org/2000/svg"><g><g><path d="m447 512c-2.399 0-4.797-.575-6.98-1.724-4.267-2.242-7.194-6.398-7.871-11.171l-8.172-57.64h-33.953l-8.172 57.64c-.677 4.772-3.604 8.929-7.871 11.171-4.267 2.243-9.349 2.298-13.664.152-35.971-17.903-58.317-53.908-58.317-93.962 0-33.152 15.169-63.666 41.618-83.716 8.379-6.353 13.382-17.202 13.382-29.024v-95.451c0-11.822-5.003-22.672-13.382-29.023-26.449-20.052-41.618-50.566-41.618-83.718 0-40.055 22.346-76.06 58.316-93.963 4.314-2.146 9.398-2.09 13.664.152 4.267 2.242 7.194 6.398 7.871 11.171l8.172 57.64h33.953l8.172-57.64c.677-4.772 3.604-8.929 7.871-11.171 4.266-2.244 9.348-2.299 13.664-.152 35.971 17.904 58.317 53.908 58.317 93.963 0 33.152-15.169 63.666-41.618 83.716-8.379 6.353-13.382 17.202-13.382 29.024v95.451c0 11.822 5.003 22.672 13.382 29.023 26.449 20.052 41.618 50.565 41.618 83.718 0 40.055-22.346 76.06-58.316 93.963-2.106 1.048-4.396 1.571-6.684 1.571z" fill="#f1f4f6"/></g><g><path d="m235 512h-220c-8.284 0-15-6.716-15-15 0-63.411 51.589-115 115-115h20c63.411 0 115 51.589 115 115 0 8.284-6.716 15-15 15z" fill="#ff6378"/><path d="m135 382h-10v130h110c8.284 0 15-6.716 15-15 0-63.411-51.589-115-115-115z" fill="#e20059"/><path d="m125 412c-46.869 0-85-38.131-85-85v-20c0-8.284 6.716-15 15-15h140c8.284 0 15 6.716 15 15v20c0 46.869-38.131 85-85 85z" fill="#ffc89a"/><path d="m195 292h-70v120c46.869 0 85-38.131 85-85v-20c0-8.284-6.716-15-15-15z" fill="#fab68c"/><path d="m125 212c-52.383 0-95 42.617-95 95h190c0-52.383-42.617-95-95-95z" fill="#ffe278"/><g fill="#ffc178"><path d="m125 212v95h95c0-52.383-42.617-95-95-95z"/><path d="m225 322h-200c-8.284 0-15-6.716-15-15s6.716-15 15-15h200c8.284 0 15 6.716 15 15s-6.716 15-15 15z"/><path d="m125 262c-8.284 0-15-6.716-15-15v-40c0-8.284 6.716-15 15-15s15 6.716 15 15v40c0 8.284-6.716 15-15 15z"/></g><path d="m225 292h-100v30h100c8.284 0 15-6.716 15-15s-6.716-15-15-15z" fill="#ff9d21"/><path d="m140 247v-40c0-8.284-6.716-15-15-15v70c8.284 0 15-6.716 15-15z" fill="#ff9d21"/></g><path d="m470.382 332.749c-8.379-6.352-13.382-17.201-13.382-29.023v-95.451c0-11.822 5.003-22.672 13.382-29.024 26.449-20.051 41.618-50.565 41.618-83.717 0-40.055-22.346-76.06-58.316-93.963-4.316-2.146-9.398-2.092-13.664.152-4.267 2.242-7.194 6.398-7.871 11.171l-8.172 57.64h-16.977v370.932h16.977l8.172 57.64c.677 4.772 3.604 8.929 7.871 11.171 2.184 1.148 4.581 1.724 6.98 1.724 2.288 0 4.578-.523 6.684-1.571 35.97-17.905 58.316-53.91 58.316-93.964 0-33.153-15.169-63.666-41.618-83.717z" fill="#e2e2ea"/></g></svg>