<svg id="Layer_1" enable-background="new 0 0 256 256" height="512" viewBox="0 0 256 256" width="512" xmlns="http://www.w3.org/2000/svg"><g><path d="m55.364 20.133h145.272v183.25h-145.272z" fill="#cecece"/><g><path d="m55.364 20.133h6.5v183.25h-6.5z" fill="#afafaf"/></g><g><path d="m194.136 20.133h6.5v183.25h-6.5z" fill="#e2e2e2"/></g><path d="m200.636 66.398v36.174l-7.12-8.353c-2.952-3.464-8.202-3.882-11.665-.93-3.464 2.952-3.882 8.202-.93 11.665l16.198 19.003s-4.834 20.402 7.909 32.058h36.026l-3.194-43.827c-.383-4.048-2.879-7.471-5.417-10.303z" fill="#f8af23"/><g><path d="m237.859 112.188c-.383-4.048-2.879-7.471-5.417-10.303l-31.806-35.487v7.427l25.15 28.061c2.538 2.832 5.034 6.256 5.417 10.303l3.194 43.827h6.656z" fill="#f8d323"/></g><path d="m189.093 156.015h63.046v26.003h-63.046z" fill="#9e9e9e"/><g><path d="m245.639 156.015h6.5v26.003h-6.5z" fill="#cecece"/></g><path d="m192.829 182.018h55.574v42.876h-55.574z" fill="#63bce7"/><g><path d="m241.903 182.018h6.5v42.876h-6.5z" fill="#63e2e7"/></g><path d="m55.364 66.398v36.174l7.12-8.353c2.952-3.464 8.202-3.882 11.665-.93 3.464 2.952 3.882 8.202.93 11.665l-16.198 19.003s4.834 20.402-7.909 32.058h-36.025l3.194-43.827c.383-4.048 2.879-7.471 5.417-10.303z" fill="#f8af23"/><g><path d="m30.058 101.885 25.306-28.235v-7.252l-31.806 35.487c-2.538 2.832-5.034 6.256-5.417 10.303l-3.194 43.827h6.5l3.194-43.827c.383-4.047 2.879-7.471 5.417-10.303z" fill="#f87023"/></g><path d="m3.861 156.015h63.046v26.003h-63.046z" fill="#9e9e9e" transform="matrix(-1 0 0 -1 70.768 338.033)"/><g><path d="m3.861 156.015h6.5v26.003h-6.5z" fill="#707070"/></g><path d="m7.597 182.018h55.574v42.876h-55.574z" fill="#63bce7" transform="matrix(-1 0 0 -1 70.768 406.912)"/><g><path d="m7.597 182.018h6.5v42.876h-6.5z" fill="#6377e7"/></g><path d="m126.261 45.355c-3.322 2.158-11.093 6.678-20.583 8.683-1.495.316-2.579 1.611-2.579 3.139v25.63c0 2.694.403 5.374 1.195 7.949 1.723 5.599 5.218 10.486 9.959 13.927l12.616 9.156c.675.49 1.587.49 2.262 0l12.616-9.156c4.741-3.441 8.236-8.328 9.959-13.927.792-2.575 1.195-5.255 1.195-7.949v-25.63c0-1.528-1.084-2.823-2.579-3.139-9.49-2.005-17.26-6.525-20.583-8.683-1.06-.689-2.418-.689-3.478 0z" fill="#63bce7"/><path d="m144.5 224.894-16.5-12.144-16.5 12.144v-42.876h33z" fill="#f8af23"/><circle cx="128" cy="172.383" fill="#f46275" r="31"/><path d="m128 154.154 5.923 12.001 13.244 1.924-9.584 9.342 2.263 13.19-11.846-6.227-11.846 6.227 2.263-13.19-9.584-9.342 13.244-1.924z" fill="#f8af23"/><g fill="#3f3679"><path d="m27.323 234.367h-18.003c-.828 0-1.5.672-1.5 1.5s.672 1.5 1.5 1.5h18.003c.828 0 1.5-.672 1.5-1.5s-.672-1.5-1.5-1.5z"/><path d="m246.68 234.367h-18.003c-.828 0-1.5.672-1.5 1.5s.672 1.5 1.5 1.5h18.003c.828 0 1.5-.672 1.5-1.5s-.672-1.5-1.5-1.5z"/><path d="m218.479 234.367h-180.958c-.828 0-1.5.672-1.5 1.5s.672 1.5 1.5 1.5h180.959c.828 0 1.5-.672 1.5-1.5s-.672-1.5-1.501-1.5z"/><path d="m14.947 170.517h7.487c.828 0 1.5-.672 1.5-1.5s-.672-1.5-1.5-1.5h-7.487c-.828 0-1.5.672-1.5 1.5s.672 1.5 1.5 1.5z"/><path d="m252.14 154.515h-9.692l-3.095-42.468c-.441-4.657-3.328-8.412-5.793-11.163l-31.424-35.06v-45.691c0-.828-.672-1.5-1.5-1.5h-145.272c-.828 0-1.5.672-1.5 1.5v45.691l-31.424 35.06c-2.465 2.751-5.352 6.506-5.796 11.195l-3.092 42.436h-9.692c-.828 0-1.5.672-1.5 1.5v26.003c0 .828.672 1.5 1.5 1.5h2.236v41.376c0 .828.672 1.5 1.5 1.5h1.724 53.851 129.658 53.851 1.724c.828 0 1.5-.672 1.5-1.5v-41.376h2.236c.828 0 1.5-.672 1.5-1.5v-26.003c0-.828-.672-1.5-1.5-1.5zm-20.815-51.629c2.158 2.408 4.682 5.658 5.038 9.412l3.076 42.217h-33.819c-11.405-10.979-7.088-30.02-7.042-30.213.109-.465-.009-.954-.318-1.317l-16.197-19.004c-2.424-2.842-2.082-7.127.761-9.551 2.844-2.423 7.128-2.081 9.551.761l7.12 8.354 13.521 15.861c.297.349.718.527 1.143.527.344 0 .689-.118.972-.358.631-.537.706-1.484.169-2.114l-13.162-15.441v-31.702zm-174.461-81.253h142.271v44.765 32.102l-4.479-5.254c-3.499-4.104-9.679-4.595-13.78-1.099-4.102 3.497-4.594 9.68-1.098 13.78l15.722 18.443c-.327 1.696-1.014 6.038-.704 11.332.355 6.061 1.928 11.402 4.603 15.784-.165.241-.263.532-.263.847v2.182h-10.043c-.828 0-1.5.672-1.5 1.5v26.003c0 .828.672 1.5 1.5 1.5h2.236v18.365h-45.329v-2.456c8.734-5.832 14.5-15.776 14.5-27.044 0-.802-.039-1.595-.097-2.383h20.347c.828 0 1.5-.672 1.5-1.5s-.672-1.5-1.5-1.5h-20.704c-.596-3.561-1.768-6.929-3.425-10h24.129c.828 0 1.5-.672 1.5-1.5s-.672-1.5-1.5-1.5h-25.968c-2.835-4.118-6.594-7.55-10.975-10h36.943c.828 0 1.5-.672 1.5-1.5s-.672-1.5-1.5-1.5h-44.313c-2.692-.725-5.519-1.117-8.437-1.117-2.931 0-5.77.397-8.473 1.127-.035-.002-.068-.01-.103-.01h-44.174c-.828 0-1.5.672-1.5 1.5s.672 1.5 1.5 1.5h36.943c-4.381 2.45-8.14 5.882-10.975 10h-25.968c-.828 0-1.5.672-1.5 1.5s.672 1.5 1.5 1.5h24.129c-1.657 3.071-2.829 6.439-3.425 10h-20.704c-.828 0-1.5.672-1.5 1.5s.672 1.5 1.5 1.5h20.347c-.057.788-.097 1.581-.097 2.383 0 11.268 5.766 21.211 14.5 27.044v2.456h-45.329v-18.365h2.236c.828 0 1.5-.672 1.5-1.5v-26.003c0-.828-.672-1.5-1.5-1.5h-10.043v-3.475c2.513-4.297 3.996-9.48 4.34-15.337.31-5.294-.377-9.636-.704-11.332l15.721-18.442c3.496-4.102 3.004-10.284-1.099-13.781-4.1-3.495-10.282-3.004-13.779 1.099l-4.479 5.254v-32.104zm7.807 183.25h45.329v18.511h-45.329zm63.329-62c16.267 0 29.5 13.233 29.5 29.5s-13.233 29.5-29.5 29.5-29.5-13.233-29.5-29.5 13.233-29.5 29.5-29.5zm0 62c5.409 0 10.509-1.335 15-3.683v20.727l-14.111-10.385c-.527-.389-1.25-.389-1.777 0l-14.112 10.385v-20.727c4.491 2.347 9.591 3.683 15 3.683zm0 9.729 11.932 8.781h-23.864zm18-9.729h45.329v18.511h-45.329zm-126.366-92.553c.359-3.786 2.883-7.036 5.041-9.444l29.189-32.567v31.265.436l-13.162 15.44c-.537.63-.462 1.577.169 2.114.282.24.628.358.972.358.425 0 .846-.179 1.143-.527l13.521-15.861 7.12-8.354c2.424-2.841 6.709-3.183 9.55-.761 2.844 2.424 3.186 6.709.762 9.552l-16.199 19.003c-.311.363-.428.854-.318 1.318.046.193 4.388 19.21-7.042 30.212h-33.819zm-14.274 45.185h9.587 36.026 14.434v10.002h-34.86c-.828 0-1.5.672-1.5 1.5s.672 1.5 1.5 1.5h34.86v10.001h-2.236-55.574-2.237zm3.96 65.879h-.223v-39.876h52.574v39.876zm237.583 0h-.224-52.351v-39.876h52.574v39.876zm3.737-42.876h-2.236-55.574-2.236v-10.001h34.86c.828 0 1.5-.672 1.5-1.5s-.672-1.5-1.5-1.5h-34.86v-10.002h14.434 36.026 9.587v23.003z"/><path d="m233.565 167.517c-.828 0-1.5.672-1.5 1.5s.672 1.5 1.5 1.5h7.487c.828 0 1.5-.672 1.5-1.5s-.672-1.5-1.5-1.5z"/><path d="m113.372 105.896 12.615 9.155c.603.438 1.308.655 2.013.655s1.41-.218 2.012-.655l12.616-9.155c4.973-3.607 8.705-8.829 10.512-14.7.837-2.723 1.262-5.545 1.262-8.39v-25.63c0-2.208-1.585-4.146-3.77-4.606-9.404-1.986-17.172-6.588-20.076-8.474-1.553-1.008-3.559-1.008-5.111 0h-.001c-2.903 1.886-10.671 6.487-20.075 8.474-2.185.461-3.77 2.398-3.77 4.606v25.63c0 2.845.425 5.667 1.262 8.39 1.806 5.871 5.538 11.093 10.511 14.7zm-8.773-48.719c0-.812.571-1.498 1.389-1.671 9.542-2.016 17.31-6.438 21.091-8.894.561-.363 1.285-.363 1.844 0 3.781 2.456 11.549 6.878 21.091 8.894.817.173 1.389.859 1.389 1.671v25.63c0 2.546-.38 5.071-1.129 7.507-1.616 5.255-4.957 9.927-9.406 13.155l-12.617 9.155c-.148.108-.349.109-.499 0l-12.616-9.155c-4.449-3.229-7.79-7.9-9.406-13.155-.749-2.436-1.129-4.961-1.129-7.507v-25.63z"/><path d="m73.75 129.5c0 .828.672 1.5 1.5 1.5h105.5c.828 0 1.5-.672 1.5-1.5s-.672-1.5-1.5-1.5h-105.5c-.828 0-1.5.672-1.5 1.5z"/><path d="m116.806 177.944-2.13 12.413c-.097.563.135 1.132.597 1.468.463.336 1.075.379 1.58.114l11.147-5.861 11.147 5.861c.22.115.459.172.698.172.311 0 .62-.097.882-.286.462-.336.693-.904.597-1.468l-2.13-12.413 9.02-8.791c.409-.398.557-.995.38-1.538s-.646-.938-1.211-1.021l-12.464-1.811-5.574-11.294c-.252-.512-.773-.836-1.345-.836s-1.093.324-1.345.836l-5.574 11.294-12.464 1.811c-.564.082-1.034.478-1.211 1.021s-.029 1.14.38 1.538zm5.487-10.304c.488-.071.911-.378 1.129-.82l4.578-9.275 4.578 9.275c.218.442.641.749 1.129.82l10.236 1.487-7.407 7.22c-.354.345-.515.841-.432 1.328l1.749 10.194-9.155-4.813c-.219-.114-.458-.172-.698-.172s-.479.058-.698.172l-9.155 4.813 1.749-10.194c.083-.487-.078-.983-.432-1.328l-7.407-7.22z"/></g></g></svg>