<svg id="color" enable-background="new 0 0 24 24" height="512" viewBox="0 0 24 24" width="512" xmlns="http://www.w3.org/2000/svg">
    <g>
        <g>
            <path d="m10.383 6.014c-3.353 0-6.506 1.305-8.875 3.674l-.035.034c-.201.201-.271.498-.182.767.09.27.324.465.605.505l4.678.67.105.008c.213 0 .418-.09.561-.251l3.703-4.159c.196-.221.244-.536.123-.806-.12-.269-.388-.442-.683-.442z" fill="#2196f3"/>
        </g>
    </g>
    <g>
        <g>
            <path d="m23.257.003c-4.63-.1-9.87 2.31-13.21 6.02-.11.11-.21.22-.3.33l-4.57 5.12-.14.15c-.271.3-.25.75.029 1.03l4.44 4.44c.22-4.22 3.72-7.59 7.99-7.59 1.27 0 2.47.3 3.54.83 1.92-2.95 3.029-6.43 2.96-9.59-.009-.4-.339-.73-.739-.74z" fill="#eceff1"/>
        </g>
    </g>
    <g>
        <g>
            <path d="m18.9 5.1c-.971-.98-2.561-.98-3.54 0-.971.97-.971 2.56 0 3.54.489.48 1.13.73 1.77.73s1.28-.25 1.77-.73c.97-.98.97-2.57 0-3.54z" fill="#2196f3"/>
        </g>
    </g>
    <g>
        <g>
            <path d="m7.082 16.92c-1.199-1.19-3.27-1.19-4.47 0-1.02 1.03-2.33 5.27-2.58 6.11-.08.27-.01.56.19.75.14.14.331.22.53.22l.221-.03c.84-.25 5.08-1.56 6.109-2.58.59-.6.92-1.39.92-2.23 0-.85-.33-1.64-.92-2.24z" fill="#ff9800"/>
        </g>
    </g>
    <g>
        <g>
            <path d="m10.051 6.018c-3.229.083-6.253 1.379-8.544 3.67l-.034.034c-.201.201-.271.498-.182.767.09.27.324.465.605.505l3.287.471 4.564-5.113c.09-.11.189-.22.3-.33.001-.001.003-.002.004-.004z" fill="#1d83d4"/>
        </g>
    </g>
    <g>
        <g>
            <path d="m22.978 0c-4.558 0-9.653 2.385-12.926 6.018-.001.002-.003.003-.005.005-.11.11-.21.22-.3.33l-4.564 5.113-.007.007-.14.15c-.271.3-.25.75.029 1.03l3.14 3.14 2.482-2.482c.658-1.064 1.557-1.963 2.62-2.62l2.053-2.051c-.97-.98-.97-2.57 0-3.54.49-.49 1.132-.735 1.773-.735s1.281.245 1.766.735l4.873-4.873c-.134-.134-.316-.219-.516-.224-.092-.002-.185-.003-.278-.003z" fill="#cdd0d2"/>
        </g>
    </g>
    <g>
        <g>
            <path d="m17.134 4.365c-.641 0-1.284.245-1.773.735-.971.97-.971 2.56 0 3.54l3.539-3.54c-.485-.49-1.125-.735-1.766-.735z" fill="#1d83d4"/>
        </g>
    </g>
    <g>
        <g>
            <path d="m4.848 16.027c-.818 0-1.635.297-2.235.892-1.02 1.03-2.33 5.27-2.58 6.11-.08.269-.01.558.189.749l6.86-6.86c-.6-.593-1.417-.891-2.234-.891z" fill="#de8400"/>
        </g>
    </g>
    <g>
        <g>
            <path d="m17.5 24c-3.584 0-6.5-2.916-6.5-6.5s2.916-6.5 6.5-6.5 6.5 2.916 6.5 6.5-2.916 6.5-6.5 6.5z" fill="#4caf50"/>
        </g>
    </g>
    <g>
        <g>
            <path d="m16.5 20c-.173 0-.347-.06-.488-.181l-1.75-1.5c-.314-.27-.351-.743-.081-1.058.271-.314.743-.351 1.058-.081l1.202 1.031 2.76-2.972c.284-.303.757-.321 1.061-.04.303.282.32.757.039 1.06l-3.25 3.5c-.149.16-.35.241-.551.241z" fill="#fff"/>
        </g>
    </g>
    <g>
        <g>
            <path d="m17.5 11c-3.584 0-6.5 2.916-6.5 6.5s2.916 6.5 6.5 6.5v-4.725l-.45.485c-.148.159-.349.24-.55.24-.173 0-.347-.06-.488-.181l-1.75-1.5c-.314-.27-.351-.743-.081-1.058.148-.172.359-.261.57-.261.173 0 .346.059.487.18l1.202 1.031 1.06-1.141z" fill="#429846"/>
        </g>
    </g>
    <g>
        <g>
            <path d="m14.751 17c-.211 0-.421.089-.57.262-.27.314-.233.788.081 1.058l1.75 1.5c.141.12.315.18.488.18.201 0 .402-.081.55-.24l.45-.485v-2.205l-1.06 1.141-1.202-1.031c-.141-.121-.315-.18-.487-.18z" fill="#dedede"/>
        </g>
    </g>
</svg>
